<?xml version="1.0" encoding="UTF-8" standalone="no"?>
<!DOCTYPE svg PUBLIC "-//W3C//DTD SVG 1.1//EN"
 "http://www.w3.org/Graphics/SVG/1.1/DTD/svg11.dtd">
<!-- Generated by graphviz version 2.30.1 (20180420.1509)
 -->
<!-- Title: Euclid::Fits::VecRaster&lt; T, n &gt; Pages: 1 -->
<svg width="130pt" height="108pt"
 viewBox="0.00 0.00 130.00 108.00" xmlns="http://www.w3.org/2000/svg" xmlns:xlink="http://www.w3.org/1999/xlink">
<g id="graph0" class="graph" transform="scale(1 1) rotate(0) translate(4 104)">
<title>Euclid::Fits::VecRaster&lt; T, n &gt;</title>
<polygon fill="white" stroke="white" points="-4,5 -4,-104 127,-104 127,5 -4,5"/>
<!-- Node1 -->
<g id="node1" class="node"><title>Node1</title>
<g id="a_node1"><a xlink:title="Copy constructor.">
<polygon fill="#bfbfbf" stroke="black" points="-0.5,-1 -0.5,-31 122.5,-31 122.5,-1 -0.5,-1"/>
<text text-anchor="start" x="7.5" y="-19" font-family="Helvetica,sans-Serif" font-size="10.00">Euclid::Fits::VecRaster</text>
<text text-anchor="middle" x="61" y="-8" font-family="Helvetica,sans-Serif" font-size="10.00">&lt; T, n &gt;</text>
</a>
</g>
</g>
<!-- Node2 -->
<g id="node2" class="node"><title>Node2</title>
<g id="a_node2"><a xlink:href="classEuclid_1_1Fits_1_1Raster.html" target="_top" xlink:title=" ">
<polygon fill="white" stroke="black" points="8,-69 8,-99 114,-99 114,-69 8,-69"/>
<text text-anchor="start" x="16" y="-87" font-family="Helvetica,sans-Serif" font-size="10.00">Euclid::Fits::Raster</text>
<text text-anchor="middle" x="61" y="-76" font-family="Helvetica,sans-Serif" font-size="10.00">&lt; T, 2 &gt;</text>
</a>
</g>
</g>
<!-- Node2&#45;&gt;Node1 -->
<g id="edge1" class="edge"><title>Node2&#45;&gt;Node1</title>
<path fill="none" stroke="midnightblue" d="M61,-58.5322C61,-49.3606 61,-39.2449 61,-31.2931"/>
<polygon fill="midnightblue" stroke="midnightblue" points="57.5001,-58.6789 61,-68.679 64.5001,-58.679 57.5001,-58.6789"/>
</g>
</g>
</svg>
