<?xml version="1.0" encoding="UTF-8" standalone="no"?>
<!DOCTYPE svg PUBLIC "-//W3C//DTD SVG 1.1//EN"
 "http://www.w3.org/Graphics/SVG/1.1/DTD/svg11.dtd">
<!-- Generated by graphviz version 2.30.1 (20180420.1509)
 -->
<!-- Title: Euclid::Fits::Hdu Pages: 1 -->
<svg width="285pt" height="84pt"
 viewBox="0.00 0.00 285.00 84.00" xmlns="http://www.w3.org/2000/svg" xmlns:xlink="http://www.w3.org/1999/xlink">
<g id="graph0" class="graph" transform="scale(1 1) rotate(0) translate(4 80)">
<title>Euclid::Fits::Hdu</title>
<polygon fill="white" stroke="white" points="-4,5 -4,-80 282,-80 282,5 -4,5"/>
<!-- Node1 -->
<g id="node1" class="node"><title>Node1</title>
<g id="a_node1"><a xlink:title="Base class for ImageHdu and BintableHdu.">
<polygon fill="#bfbfbf" stroke="black" points="94,-56.5 94,-75.5 188,-75.5 188,-56.5 94,-56.5"/>
<text text-anchor="middle" x="141" y="-63.5" font-family="Helvetica,sans-Serif" font-size="10.00">Euclid::Fits::Hdu</text>
</a>
</g>
</g>
<!-- Node2 -->
<g id="node2" class="node"><title>Node2</title>
<g id="a_node2"><a xlink:href="classEuclid_1_1Fits_1_1BintableHdu.html" target="_top" xlink:title="Binary table HDU reader&#45;writer.">
<polygon fill="white" stroke="black" points="0,-0.5 0,-19.5 134,-19.5 134,-0.5 0,-0.5"/>
<text text-anchor="middle" x="67" y="-7.5" font-family="Helvetica,sans-Serif" font-size="10.00">Euclid::Fits::BintableHdu</text>
</a>
</g>
</g>
<!-- Node1&#45;&gt;Node2 -->
<g id="edge1" class="edge"><title>Node1&#45;&gt;Node2</title>
<path fill="none" stroke="midnightblue" d="M120.966,-50.3804C107.591,-40.6204 90.4412,-28.1057 79.1057,-19.8339"/>
<polygon fill="midnightblue" stroke="midnightblue" points="118.97,-53.2565 129.111,-56.324 123.096,-47.602 118.97,-53.2565"/>
</g>
<!-- Node3 -->
<g id="node3" class="node"><title>Node3</title>
<g id="a_node3"><a xlink:href="classEuclid_1_1Fits_1_1ImageHdu.html" target="_top" xlink:title="Image HDU reader&#45;writer.">
<polygon fill="white" stroke="black" points="152.5,-0.5 152.5,-19.5 277.5,-19.5 277.5,-0.5 152.5,-0.5"/>
<text text-anchor="middle" x="215" y="-7.5" font-family="Helvetica,sans-Serif" font-size="10.00">Euclid::Fits::ImageHdu</text>
</a>
</g>
</g>
<!-- Node1&#45;&gt;Node3 -->
<g id="edge2" class="edge"><title>Node1&#45;&gt;Node3</title>
<path fill="none" stroke="midnightblue" d="M161.034,-50.3804C174.409,-40.6204 191.559,-28.1057 202.894,-19.8339"/>
<polygon fill="midnightblue" stroke="midnightblue" points="158.904,-47.602 152.889,-56.324 163.03,-53.2565 158.904,-47.602"/>
</g>
</g>
</svg>
