<?xml version="1.0" encoding="UTF-8" standalone="no"?>
<!DOCTYPE svg PUBLIC "-//W3C//DTD SVG 1.1//EN"
 "http://www.w3.org/Graphics/SVG/1.1/DTD/svg11.dtd">
<!-- Generated by graphviz version 2.30.1 (20180420.1509)
 -->
<!-- Title: Euclid::Fits::Raster&lt; T, n &gt; Pages: 1 -->
<svg width="142pt" height="164pt"
 viewBox="0.00 0.00 142.00 164.00" xmlns="http://www.w3.org/2000/svg" xmlns:xlink="http://www.w3.org/1999/xlink">
<g id="graph0" class="graph" transform="scale(1 1) rotate(0) translate(4 160)">
<title>Euclid::Fits::Raster&lt; T, n &gt;</title>
<polygon fill="white" stroke="white" points="-4,5 -4,-160 139,-160 139,5 -4,5"/>
<!-- Node1 -->
<g id="node1" class="node"><title>Node1</title>
<g id="a_node1"><a xlink:title="Raster of a n&#45;dimensional image (2D by default).">
<polygon fill="#bfbfbf" stroke="black" points="14,-125 14,-155 120,-155 120,-125 14,-125"/>
<text text-anchor="start" x="22" y="-143" font-family="Helvetica,sans-Serif" font-size="10.00">Euclid::Fits::Raster</text>
<text text-anchor="middle" x="67" y="-132" font-family="Helvetica,sans-Serif" font-size="10.00">&lt; T, n &gt;</text>
</a>
</g>
</g>
<!-- Node2 -->
<g id="node2" class="node"><title>Node2</title>
<g id="a_node2"><a xlink:href="classEuclid_1_1Fits_1_1VecRaster.html" target="_top" xlink:title=" ">
<polygon fill="white" stroke="black" points="14,-68.5 14,-87.5 120,-87.5 120,-68.5 14,-68.5"/>
<text text-anchor="middle" x="67" y="-75.5" font-family="Helvetica,sans-Serif" font-size="10.00">VecRaster&lt; T, 2 &gt;</text>
</a>
</g>
</g>
<!-- Node1&#45;&gt;Node2 -->
<g id="edge1" class="edge"><title>Node1&#45;&gt;Node2</title>
<path fill="none" stroke="midnightblue" d="M67,-114.586C67,-105.074 67,-94.7864 67,-87.7305"/>
<polygon fill="midnightblue" stroke="midnightblue" points="63.5001,-114.781 67,-124.781 70.5001,-114.781 63.5001,-114.781"/>
</g>
<!-- Node3 -->
<g id="node3" class="node"><title>Node3</title>
<g id="a_node3"><a xlink:href="classEuclid_1_1Fits_1_1Test_1_1RandomRaster.html" target="_top" xlink:title="A random Raster of given type and shape.">
<polygon fill="white" stroke="black" points="-0.5,-1 -0.5,-31 134.5,-31 134.5,-1 -0.5,-1"/>
<text text-anchor="start" x="7.5" y="-19" font-family="Helvetica,sans-Serif" font-size="10.00">Euclid::Fits::Test</text>
<text text-anchor="middle" x="67" y="-8" font-family="Helvetica,sans-Serif" font-size="10.00">::RandomRaster&lt; T, n &gt;</text>
</a>
</g>
</g>
<!-- Node2&#45;&gt;Node3 -->
<g id="edge2" class="edge"><title>Node2&#45;&gt;Node3</title>
<path fill="none" stroke="midnightblue" d="M67,-58.3707C67,-49.5849 67,-39.2721 67,-31.1408"/>
<polygon fill="midnightblue" stroke="midnightblue" points="63.5001,-58.4034 67,-68.4035 70.5001,-58.4035 63.5001,-58.4034"/>
</g>
</g>
</svg>
