<?xml version="1.0" encoding="UTF-8" standalone="no"?>
<!DOCTYPE svg PUBLIC "-//W3C//DTD SVG 1.1//EN"
 "http://www.w3.org/Graphics/SVG/1.1/DTD/svg11.dtd">
<!-- Generated by graphviz version 2.30.1 (20180420.1509)
 -->
<!-- Title: Euclid::Fits::PositionIterator&lt; n &gt; Pages: 1 -->
<svg width="186pt" height="106pt"
 viewBox="0.00 0.00 186.00 106.00" xmlns="http://www.w3.org/2000/svg" xmlns:xlink="http://www.w3.org/1999/xlink">
<g id="graph0" class="graph" transform="scale(1 1) rotate(0) translate(4 102)">
<title>Euclid::Fits::PositionIterator&lt; n &gt;</title>
<polygon fill="white" stroke="white" points="-4,5 -4,-102 183,-102 183,5 -4,5"/>
<!-- Node1 -->
<g id="node1" class="node"><title>Node1</title>
<g id="a_node1"><a xlink:title="A helper class to screen a Region.">
<polygon fill="#bfbfbf" stroke="black" points="0,-0.5 0,-19.5 178,-19.5 178,-0.5 0,-0.5"/>
<text text-anchor="middle" x="89" y="-7.5" font-family="Helvetica,sans-Serif" font-size="10.00">Euclid::Fits::PositionIterator&lt; n &gt;</text>
</a>
</g>
</g>
<!-- Node2 -->
<g id="node2" class="node"><title>Node2</title>
<g id="a_node2"><a target="_parent" xlink:href="http://en.cppreference.com/w/cpp/iterator/iterator.html" target="_top" xlink:title=" ">
<polygon fill="white" stroke="black" points="32.5,-56.5 32.5,-97.5 145.5,-97.5 145.5,-56.5 32.5,-56.5"/>
<text text-anchor="start" x="40.5" y="-85.5" font-family="Helvetica,sans-Serif" font-size="10.00">std::iterator&lt; std</text>
<text text-anchor="start" x="40.5" y="-74.5" font-family="Helvetica,sans-Serif" font-size="10.00">::input_iterator_tag,</text>
<text text-anchor="middle" x="89" y="-63.5" font-family="Helvetica,sans-Serif" font-size="10.00"> Position&lt; 2 &gt; &gt;</text>
</a>
</g>
</g>
<!-- Node2&#45;&gt;Node1 -->
<g id="edge1" class="edge"><title>Node2&#45;&gt;Node1</title>
<path fill="none" stroke="midnightblue" d="M89,-46.2632C89,-36.5592 89,-26.5242 89,-19.6525"/>
<polygon fill="midnightblue" stroke="midnightblue" points="85.5001,-46.4978 89,-56.4979 92.5001,-46.4979 85.5001,-46.4978"/>
</g>
</g>
</svg>
