<?xml version="1.0" encoding="UTF-8" standalone="no"?>
<!DOCTYPE svg PUBLIC "-//W3C//DTD SVG 1.1//EN"
 "http://www.w3.org/Graphics/SVG/1.1/DTD/svg11.dtd">
<!-- Generated by graphviz version 2.30.1 (20180420.1509)
 -->
<!-- Title: Euclid::Fits::Column&lt; T &gt; Pages: 1 -->
<svg width="538pt" height="87pt"
 viewBox="0.00 0.00 538.00 87.00" xmlns="http://www.w3.org/2000/svg" xmlns:xlink="http://www.w3.org/1999/xlink">
<g id="graph0" class="graph" transform="scale(1 1) rotate(0) translate(4 83)">
<title>Euclid::Fits::Column&lt; T &gt;</title>
<polygon fill="white" stroke="white" points="-4,5 -4,-83 535,-83 535,5 -4,5"/>
<!-- Node1 -->
<g id="node1" class="node"><title>Node1</title>
<g id="a_node1"><a xlink:title="Binary table column data and metadata.">
<polygon fill="#bfbfbf" stroke="black" points="0,-29.5 0,-48.5 140,-48.5 140,-29.5 0,-29.5"/>
<text text-anchor="middle" x="70" y="-36.5" font-family="Helvetica,sans-Serif" font-size="10.00">Euclid::Fits::Column&lt; T &gt;</text>
</a>
</g>
</g>
<!-- Node2 -->
<g id="node2" class="node"><title>Node2</title>
<g id="a_node2"><a xlink:href="classEuclid_1_1Fits_1_1VecColumn.html" target="_top" xlink:title="Column which stores internally the data.">
<polygon fill="white" stroke="black" points="176,-29.5 176,-48.5 334,-48.5 334,-29.5 176,-29.5"/>
<text text-anchor="middle" x="255" y="-36.5" font-family="Helvetica,sans-Serif" font-size="10.00">Euclid::Fits::VecColumn&lt; T &gt;</text>
</a>
</g>
</g>
<!-- Node1&#45;&gt;Node2 -->
<g id="edge1" class="edge"><title>Node1&#45;&gt;Node2</title>
<path fill="none" stroke="midnightblue" d="M150.387,-39C158.825,-39 167.402,-39 175.825,-39"/>
<polygon fill="midnightblue" stroke="midnightblue" points="150.184,-35.5001 140.184,-39 150.184,-42.5001 150.184,-35.5001"/>
</g>
<!-- Node3 -->
<g id="node3" class="node"><title>Node3</title>
<g id="a_node3"><a xlink:href="classEuclid_1_1Fits_1_1Test_1_1RandomScalarColumn.html" target="_top" xlink:title="A random scalar Column of given type.">
<polygon fill="white" stroke="black" points="370.5,-49 370.5,-79 529.5,-79 529.5,-49 370.5,-49"/>
<text text-anchor="start" x="378.5" y="-67" font-family="Helvetica,sans-Serif" font-size="10.00">Euclid::Fits::Test</text>
<text text-anchor="middle" x="450" y="-56" font-family="Helvetica,sans-Serif" font-size="10.00">::RandomScalarColumn&lt; T &gt;</text>
</a>
</g>
</g>
<!-- Node2&#45;&gt;Node3 -->
<g id="edge2" class="edge"><title>Node2&#45;&gt;Node3</title>
<path fill="none" stroke="midnightblue" d="M339.602,-49.8292C349.77,-51.1463 360.132,-52.4886 370.227,-53.7962"/>
<polygon fill="midnightblue" stroke="midnightblue" points="339.882,-46.3364 329.516,-48.5227 338.983,-53.2784 339.882,-46.3364"/>
</g>
<!-- Node4 -->
<g id="node4" class="node"><title>Node4</title>
<g id="a_node4"><a xlink:href="classEuclid_1_1Fits_1_1Test_1_1RandomVectorColumn.html" target="_top" xlink:title="A small vector column of given type.">
<polygon fill="white" stroke="black" points="370,-0 370,-30 530,-30 530,-0 370,-0"/>
<text text-anchor="start" x="378" y="-18" font-family="Helvetica,sans-Serif" font-size="10.00">Euclid::Fits::Test</text>
<text text-anchor="middle" x="450" y="-7" font-family="Helvetica,sans-Serif" font-size="10.00">::RandomVectorColumn&lt; T &gt;</text>
</a>
</g>
</g>
<!-- Node2&#45;&gt;Node4 -->
<g id="edge3" class="edge"><title>Node2&#45;&gt;Node4</title>
<path fill="none" stroke="midnightblue" d="M342.653,-28.2244C351.655,-27.105 360.773,-25.9713 369.688,-24.8626"/>
<polygon fill="midnightblue" stroke="midnightblue" points="342.048,-24.7727 332.556,-29.4801 342.911,-31.7192 342.048,-24.7727"/>
</g>
</g>
</svg>
