<?xml version="1.0" encoding="UTF-8" standalone="no"?>
<!DOCTYPE svg PUBLIC "-//W3C//DTD SVG 1.1//EN"
 "http://www.w3.org/Graphics/SVG/1.1/DTD/svg11.dtd">
<!-- Generated by graphviz version 2.30.1 (20180420.1509)
 -->
<!-- Title: Graphical Class Hierarchy Pages: 1 -->
<svg width="394pt" height="87pt"
 viewBox="0.00 0.00 394.00 87.00" xmlns="http://www.w3.org/2000/svg" xmlns:xlink="http://www.w3.org/1999/xlink">
<g id="graph0" class="graph" transform="scale(1 1) rotate(0) translate(4 83)">
<title>Graphical Class Hierarchy</title>
<polygon fill="white" stroke="white" points="-4,5 -4,-83 391,-83 391,5 -4,5"/>
<!-- Node0 -->
<g id="node1" class="node"><title>Node0</title>
<g id="a_node1"><a xlink:href="classEuclid_1_1Fits_1_1Test_1_1Benchmark.html" target="_top" xlink:title="The base class for all test cases of the benchmark.">
<polygon fill="white" stroke="black" points="0,-24 0,-54 94,-54 94,-24 0,-24"/>
<text text-anchor="start" x="8" y="-42" font-family="Helvetica,sans-Serif" font-size="10.00">Euclid::Fits::Test</text>
<text text-anchor="middle" x="47" y="-31" font-family="Helvetica,sans-Serif" font-size="10.00">::Benchmark</text>
</a>
</g>
</g>
<!-- Node1 -->
<g id="node2" class="node"><title>Node1</title>
<g id="a_node2"><a xlink:href="classEuclid_1_1Fits_1_1Test_1_1CfitsioBenchmark.html" target="_top" xlink:title="Vanilla CFitsIO.">
<polygon fill="white" stroke="black" points="138.5,-49 138.5,-79 247.5,-79 247.5,-49 138.5,-49"/>
<text text-anchor="start" x="146.5" y="-67" font-family="Helvetica,sans-Serif" font-size="10.00">Euclid::Fits::Test</text>
<text text-anchor="middle" x="193" y="-56" font-family="Helvetica,sans-Serif" font-size="10.00">::CfitsioBenchmark</text>
</a>
</g>
</g>
<!-- Node0&#45;&gt;Node1 -->
<g id="edge1" class="edge"><title>Node0&#45;&gt;Node1</title>
<path fill="none" stroke="midnightblue" d="M104.455,-48.8012C115.649,-50.7447 127.371,-52.7796 138.464,-54.7056"/>
<polygon fill="midnightblue" stroke="midnightblue" points="104.806,-45.31 94.3551,-47.0478 103.609,-52.2068 104.806,-45.31"/>
</g>
<!-- Node2 -->
<g id="node3" class="node"><title>Node2</title>
<g id="a_node3"><a xlink:href="classEuclid_1_1Fits_1_1Test_1_1ElColwiseBenchmark.html" target="_top" xlink:title="EleFits without column I/O buffering.">
<polygon fill="white" stroke="black" points="130.5,-0 130.5,-30 255.5,-30 255.5,-0 130.5,-0"/>
<text text-anchor="start" x="138.5" y="-18" font-family="Helvetica,sans-Serif" font-size="10.00">Euclid::Fits::Test</text>
<text text-anchor="middle" x="193" y="-7" font-family="Helvetica,sans-Serif" font-size="10.00">::ElColwiseBenchmark</text>
</a>
</g>
</g>
<!-- Node0&#45;&gt;Node2 -->
<g id="edge2" class="edge"><title>Node0&#45;&gt;Node2</title>
<path fill="none" stroke="midnightblue" d="M104.275,-29.6209C112.874,-28.1876 121.789,-26.7019 130.494,-25.251"/>
<polygon fill="midnightblue" stroke="midnightblue" points="103.644,-26.1777 94.3551,-31.2741 104.795,-33.0824 103.644,-26.1777"/>
</g>
<!-- Node3 -->
<g id="node4" class="node"><title>Node3</title>
<g id="a_node4"><a xlink:href="classEuclid_1_1Fits_1_1Test_1_1ElBenchmark.html" target="_top" xlink:title="Standard EleFits.">
<polygon fill="white" stroke="black" points="292,-0 292,-30 386,-30 386,-0 292,-0"/>
<text text-anchor="start" x="300" y="-18" font-family="Helvetica,sans-Serif" font-size="10.00">Euclid::Fits::Test</text>
<text text-anchor="middle" x="339" y="-7" font-family="Helvetica,sans-Serif" font-size="10.00">::ElBenchmark</text>
</a>
</g>
</g>
<!-- Node2&#45;&gt;Node3 -->
<g id="edge3" class="edge"><title>Node2&#45;&gt;Node3</title>
<path fill="none" stroke="midnightblue" d="M266.127,-15C274.861,-15 283.592,-15 291.806,-15"/>
<polygon fill="midnightblue" stroke="midnightblue" points="265.905,-11.5001 255.905,-15 265.905,-18.5001 265.905,-11.5001"/>
</g>
</g>
</svg>
