<?xml version="1.0" encoding="UTF-8" standalone="no"?>
<!DOCTYPE svg PUBLIC "-//W3C//DTD SVG 1.1//EN"
 "http://www.w3.org/Graphics/SVG/1.1/DTD/svg11.dtd">
<!-- Generated by graphviz version 2.30.1 (20180420.1509)
 -->
<!-- Title: Graphical Class Hierarchy Pages: 1 -->
<svg width="446pt" height="38pt"
 viewBox="0.00 0.00 446.00 38.00" xmlns="http://www.w3.org/2000/svg" xmlns:xlink="http://www.w3.org/1999/xlink">
<g id="graph0" class="graph" transform="scale(1 1) rotate(0) translate(4 34)">
<title>Graphical Class Hierarchy</title>
<polygon fill="white" stroke="white" points="-4,5 -4,-34 443,-34 443,5 -4,5"/>
<!-- Node0 -->
<g id="node1" class="node"><title>Node0</title>
<g id="a_node1"><a xlink:href="classEuclid_1_1Fits_1_1Raster.html" target="_top" xlink:title="Raster of a n&#45;dimensional image (2D by default).">
<polygon fill="white" stroke="black" points="0,-0 0,-30 106,-30 106,-0 0,-0"/>
<text text-anchor="start" x="8" y="-18" font-family="Helvetica,sans-Serif" font-size="10.00">Euclid::Fits::Raster</text>
<text text-anchor="middle" x="53" y="-7" font-family="Helvetica,sans-Serif" font-size="10.00">&lt; T, n &gt;</text>
</a>
</g>
</g>
<!-- Node1 -->
<g id="node2" class="node"><title>Node1</title>
<g id="a_node2"><a xlink:href="classEuclid_1_1Fits_1_1VecRaster.html" target="_top" xlink:title=" ">
<polygon fill="white" stroke="black" points="142.5,-0 142.5,-30 265.5,-30 265.5,-0 142.5,-0"/>
<text text-anchor="start" x="150.5" y="-18" font-family="Helvetica,sans-Serif" font-size="10.00">Euclid::Fits::VecRaster</text>
<text text-anchor="middle" x="204" y="-7" font-family="Helvetica,sans-Serif" font-size="10.00">&lt; T, 2 &gt;</text>
</a>
</g>
</g>
<!-- Node0&#45;&gt;Node1 -->
<g id="edge1" class="edge"><title>Node0&#45;&gt;Node1</title>
<path fill="none" stroke="midnightblue" d="M116.191,-15C124.891,-15 133.822,-15 142.49,-15"/>
<polygon fill="midnightblue" stroke="midnightblue" points="116.113,-11.5001 106.113,-15 116.113,-18.5001 116.113,-11.5001"/>
</g>
<!-- Node2 -->
<g id="node3" class="node"><title>Node2</title>
<g id="a_node3"><a xlink:href="classEuclid_1_1Fits_1_1Test_1_1RandomRaster.html" target="_top" xlink:title="A random Raster of given type and shape.">
<polygon fill="white" stroke="black" points="302.5,-0 302.5,-30 437.5,-30 437.5,-0 302.5,-0"/>
<text text-anchor="start" x="310.5" y="-18" font-family="Helvetica,sans-Serif" font-size="10.00">Euclid::Fits::Test</text>
<text text-anchor="middle" x="370" y="-7" font-family="Helvetica,sans-Serif" font-size="10.00">::RandomRaster&lt; T, n &gt;</text>
</a>
</g>
</g>
<!-- Node1&#45;&gt;Node2 -->
<g id="edge2" class="edge"><title>Node1&#45;&gt;Node2</title>
<path fill="none" stroke="midnightblue" d="M275.817,-15C284.609,-15 293.575,-15 302.301,-15"/>
<polygon fill="midnightblue" stroke="midnightblue" points="275.602,-11.5001 265.602,-15 275.602,-18.5001 275.602,-11.5001"/>
</g>
</g>
</svg>
