<?xml version="1.0" encoding="UTF-8" standalone="no"?>
<!DOCTYPE svg PUBLIC "-//W3C//DTD SVG 1.1//EN"
 "http://www.w3.org/Graphics/SVG/1.1/DTD/svg11.dtd">
<!-- Generated by graphviz version 2.30.1 (20180420.1509)
 -->
<!-- Title: Graphical Class Hierarchy Pages: 1 -->
<svg width="466pt" height="312pt"
 viewBox="0.00 0.00 466.00 312.00" xmlns="http://www.w3.org/2000/svg" xmlns:xlink="http://www.w3.org/1999/xlink">
<g id="graph0" class="graph" transform="scale(1 1) rotate(0) translate(4 308)">
<title>Graphical Class Hierarchy</title>
<polygon fill="white" stroke="white" points="-4,5 -4,-308 463,-308 463,5 -4,5"/>
<!-- Node0 -->
<g id="node1" class="node"><title>Node0</title>
<g id="a_node1"><a target="_parent" xlink:href="http://en.cppreference.com/w/cpp/error/exception.html" target="_top" xlink:title="STL class.">
<polygon fill="white" stroke="black" points="0,-120.5 0,-139.5 86,-139.5 86,-120.5 0,-120.5"/>
<text text-anchor="middle" x="43" y="-127.5" font-family="Helvetica,sans-Serif" font-size="10.00">std::exception</text>
</a>
</g>
</g>
<!-- Node1 -->
<g id="node2" class="node"><title>Node1</title>
<g id="a_node2"><a xlink:href="classEuclid_1_1Fits_1_1FitsError.html" target="_top" xlink:title="Base of all exceptions thrown directly by the library.">
<polygon fill="white" stroke="black" points="140,-142.5 140,-161.5 254,-161.5 254,-142.5 140,-142.5"/>
<text text-anchor="middle" x="197" y="-149.5" font-family="Helvetica,sans-Serif" font-size="10.00">Euclid::Fits::FitsError</text>
</a>
</g>
</g>
<!-- Node0&#45;&gt;Node1 -->
<g id="edge1" class="edge"><title>Node0&#45;&gt;Node1</title>
<path fill="none" stroke="midnightblue" d="M96.3441,-137.576C110.418,-139.613 125.693,-141.824 139.959,-143.889"/>
<polygon fill="midnightblue" stroke="midnightblue" points="96.7387,-134.097 86.3405,-136.128 95.736,-141.025 96.7387,-134.097"/>
</g>
<!-- Node9 -->
<g id="node10" class="node"><title>Node9</title>
<g id="a_node10"><a xlink:href="structEuclid_1_1Fits_1_1Test_1_1TestCaseNotImplemented.html" target="_top" xlink:title="The exception which is thrown when a test case is not implemented.">
<polygon fill="white" stroke="black" points="122.5,-93 122.5,-123 271.5,-123 271.5,-93 122.5,-93"/>
<text text-anchor="start" x="130.5" y="-111" font-family="Helvetica,sans-Serif" font-size="10.00">Euclid::Fits::Test</text>
<text text-anchor="middle" x="197" y="-100" font-family="Helvetica,sans-Serif" font-size="10.00">::TestCaseNotImplemented</text>
</a>
</g>
</g>
<!-- Node0&#45;&gt;Node9 -->
<g id="edge9" class="edge"><title>Node0&#45;&gt;Node9</title>
<path fill="none" stroke="midnightblue" d="M96.368,-122.42C104.79,-121.202 113.641,-119.92 122.449,-118.646"/>
<polygon fill="midnightblue" stroke="midnightblue" points="95.736,-118.975 86.3405,-123.872 96.7387,-125.903 95.736,-118.975"/>
</g>
<!-- Node2 -->
<g id="node3" class="node"><title>Node2</title>
<g id="a_node3"><a xlink:href="classEuclid_1_1Cfitsio_1_1CfitsioError.html" target="_top" xlink:title="The error class which is thrown when an error occurs in a CFitsIO routine.">
<polygon fill="white" stroke="black" points="323.5,-274 323.5,-304 442.5,-304 442.5,-274 323.5,-274"/>
<text text-anchor="start" x="331.5" y="-292" font-family="Helvetica,sans-Serif" font-size="10.00">Euclid::Cfitsio::Cfitsio</text>
<text text-anchor="middle" x="383" y="-281" font-family="Helvetica,sans-Serif" font-size="10.00">Error</text>
</a>
</g>
</g>
<!-- Node1&#45;&gt;Node2 -->
<g id="edge2" class="edge"><title>Node1&#45;&gt;Node2</title>
<path fill="none" stroke="midnightblue" d="M210.927,-169.627C229.722,-194.085 266.871,-238.209 308,-264 314.089,-267.818 320.828,-271.127 327.688,-273.974"/>
<polygon fill="midnightblue" stroke="midnightblue" points="213.673,-167.456 204.859,-161.576 208.083,-171.669 213.673,-167.456"/>
</g>
<!-- Node3 -->
<g id="node4" class="node"><title>Node3</title>
<g id="a_node4"><a xlink:href="structEuclid_1_1Fits_1_1ChecksumError.html" target="_top" xlink:title="Exception thrown if a checksum is missing or incorrect.">
<polygon fill="white" stroke="black" points="308.5,-235.5 308.5,-254.5 457.5,-254.5 457.5,-235.5 308.5,-235.5"/>
<text text-anchor="middle" x="383" y="-242.5" font-family="Helvetica,sans-Serif" font-size="10.00">Euclid::Fits::ChecksumError</text>
</a>
</g>
</g>
<!-- Node1&#45;&gt;Node3 -->
<g id="edge3" class="edge"><title>Node1&#45;&gt;Node3</title>
<path fill="none" stroke="midnightblue" d="M217.685,-167.926C238.849,-184.34 274.047,-209.636 308,-225 317.215,-229.17 327.48,-232.626 337.36,-235.426"/>
<polygon fill="midnightblue" stroke="midnightblue" points="219.797,-165.135 209.776,-161.697 215.466,-170.634 219.797,-165.135"/>
</g>
<!-- Node4 -->
<g id="node5" class="node"><title>Node4</title>
<g id="a_node5"><a xlink:href="structEuclid_1_1Fits_1_1HduCategory_1_1IncompatibleTrits.html" target="_top" xlink:title="The exception thrown when trying to combine incompatible trits.">
<polygon fill="white" stroke="black" points="314,-186 314,-216 452,-216 452,-186 314,-186"/>
<text text-anchor="start" x="322" y="-204" font-family="Helvetica,sans-Serif" font-size="10.00">Euclid::Fits::HduCategory</text>
<text text-anchor="middle" x="383" y="-193" font-family="Helvetica,sans-Serif" font-size="10.00">::IncompatibleTrits</text>
</a>
</g>
</g>
<!-- Node1&#45;&gt;Node4 -->
<g id="edge4" class="edge"><title>Node1&#45;&gt;Node4</title>
<path fill="none" stroke="midnightblue" d="M243.773,-164.19C268.524,-170.781 299.306,-178.978 325.535,-185.963"/>
<polygon fill="midnightblue" stroke="midnightblue" points="244.478,-160.755 233.914,-161.564 242.676,-167.52 244.478,-160.755"/>
</g>
<!-- Node5 -->
<g id="node6" class="node"><title>Node5</title>
<g id="a_node6"><a xlink:href="structEuclid_1_1Fits_1_1KeywordExistsError.html" target="_top" xlink:title="Exception thrown when a keyword already exists.">
<polygon fill="white" stroke="black" points="310,-137 310,-167 456,-167 456,-137 310,-137"/>
<text text-anchor="start" x="318" y="-155" font-family="Helvetica,sans-Serif" font-size="10.00">Euclid::Fits::KeywordExists</text>
<text text-anchor="middle" x="383" y="-144" font-family="Helvetica,sans-Serif" font-size="10.00">Error</text>
</a>
</g>
</g>
<!-- Node1&#45;&gt;Node5 -->
<g id="edge5" class="edge"><title>Node1&#45;&gt;Node5</title>
<path fill="none" stroke="midnightblue" d="M264.27,-152C279.061,-152 294.816,-152 309.831,-152"/>
<polygon fill="midnightblue" stroke="midnightblue" points="264.206,-148.5 254.206,-152 264.206,-155.5 264.206,-148.5"/>
</g>
<!-- Node6 -->
<g id="node7" class="node"><title>Node6</title>
<g id="a_node7"><a xlink:href="structEuclid_1_1Fits_1_1KeywordNotFoundError.html" target="_top" xlink:title="Exception thrown when a keyword is not found.">
<polygon fill="white" stroke="black" points="316,-88 316,-118 450,-118 450,-88 316,-88"/>
<text text-anchor="start" x="324" y="-106" font-family="Helvetica,sans-Serif" font-size="10.00">Euclid::Fits::KeywordNot</text>
<text text-anchor="middle" x="383" y="-95" font-family="Helvetica,sans-Serif" font-size="10.00">FoundError</text>
</a>
</g>
</g>
<!-- Node1&#45;&gt;Node6 -->
<g id="edge6" class="edge"><title>Node1&#45;&gt;Node6</title>
<path fill="none" stroke="midnightblue" d="M243.773,-139.81C268.524,-133.219 299.306,-125.022 325.535,-118.037"/>
<polygon fill="midnightblue" stroke="midnightblue" points="242.676,-136.48 233.914,-142.436 244.478,-143.245 242.676,-136.48"/>
</g>
<!-- Node7 -->
<g id="node8" class="node"><title>Node7</title>
<g id="a_node8"><a xlink:href="classEuclid_1_1Fits_1_1OutOfBoundsError.html" target="_top" xlink:title="Exception thrown if a value lies out of given bounds.">
<polygon fill="white" stroke="black" points="313.5,-39 313.5,-69 452.5,-69 452.5,-39 313.5,-39"/>
<text text-anchor="start" x="321.5" y="-57" font-family="Helvetica,sans-Serif" font-size="10.00">Euclid::Fits::OutOfBounds</text>
<text text-anchor="middle" x="383" y="-46" font-family="Helvetica,sans-Serif" font-size="10.00">Error</text>
</a>
</g>
</g>
<!-- Node1&#45;&gt;Node7 -->
<g id="edge7" class="edge"><title>Node1&#45;&gt;Node7</title>
<path fill="none" stroke="midnightblue" d="M261.038,-138.446C264.891,-136.569 268.586,-134.432 272,-132 295.191,-115.477 285.33,-96.2324 308,-79 313.074,-75.143 318.779,-71.8596 324.713,-69.0692"/>
<polygon fill="midnightblue" stroke="midnightblue" points="259.644,-135.235 251.812,-142.371 262.384,-141.677 259.644,-135.235"/>
</g>
<!-- Node8 -->
<g id="node9" class="node"><title>Node8</title>
<g id="a_node9"><a xlink:href="classEuclid_1_1Fits_1_1ReadOnlyError.html" target="_top" xlink:title="Exception thrown if trying to write a read&#45;only file.">
<polygon fill="white" stroke="black" points="311,-0.5 311,-19.5 455,-19.5 455,-0.5 311,-0.5"/>
<text text-anchor="middle" x="383" y="-7.5" font-family="Helvetica,sans-Serif" font-size="10.00">Euclid::Fits::ReadOnlyError</text>
</a>
</g>
</g>
<!-- Node1&#45;&gt;Node8 -->
<g id="edge8" class="edge"><title>Node1&#45;&gt;Node8</title>
<path fill="none" stroke="midnightblue" d="M262.982,-138.727C266.214,-136.777 269.253,-134.548 272,-132 307.249,-99.3107 272.751,-62.6893 308,-30 312.684,-25.6563 318.213,-22.2384 324.105,-19.5518"/>
<polygon fill="midnightblue" stroke="midnightblue" points="261.376,-135.618 254.042,-143.264 264.543,-141.86 261.376,-135.618"/>
</g>
</g>
</svg>
