<?xml version="1.0" encoding="UTF-8" standalone="no"?>
<!DOCTYPE svg PUBLIC "-//W3C//DTD SVG 1.1//EN"
 "http://www.w3.org/Graphics/SVG/1.1/DTD/svg11.dtd">
<!-- Generated by graphviz version 2.30.1 (20180420.1509)
 -->
<!-- Title: Graphical Class Hierarchy Pages: 1 -->
<svg width="336pt" height="50pt"
 viewBox="0.00 0.00 336.00 50.00" xmlns="http://www.w3.org/2000/svg" xmlns:xlink="http://www.w3.org/1999/xlink">
<g id="graph0" class="graph" transform="scale(1 1) rotate(0) translate(4 46)">
<title>Graphical Class Hierarchy</title>
<polygon fill="white" stroke="white" points="-4,5 -4,-46 333,-46 333,5 -4,5"/>
<!-- Node0 -->
<g id="node1" class="node"><title>Node0</title>
<g id="a_node1"><a target="_parent" xlink:href="http://en.cppreference.com/w/cpp/iterator/iterator.html" target="_top" xlink:title=" ">
<polygon fill="white" stroke="black" points="0.5,-0.5 0.5,-41.5 113.5,-41.5 113.5,-0.5 0.5,-0.5"/>
<text text-anchor="start" x="8.5" y="-29.5" font-family="Helvetica,sans-Serif" font-size="10.00">std::iterator&lt; std</text>
<text text-anchor="start" x="8.5" y="-18.5" font-family="Helvetica,sans-Serif" font-size="10.00">::input_iterator_tag,</text>
<text text-anchor="middle" x="57" y="-7.5" font-family="Helvetica,sans-Serif" font-size="10.00"> Position&lt; 2 &gt; &gt;</text>
</a>
</g>
</g>
<!-- Node1 -->
<g id="node2" class="node"><title>Node1</title>
<g id="a_node2"><a xlink:href="classEuclid_1_1Fits_1_1PositionIterator.html" target="_top" xlink:title="A helper class to screen a Region.">
<polygon fill="white" stroke="black" points="150,-11.5 150,-30.5 328,-30.5 328,-11.5 150,-11.5"/>
<text text-anchor="middle" x="239" y="-18.5" font-family="Helvetica,sans-Serif" font-size="10.00">Euclid::Fits::PositionIterator&lt; n &gt;</text>
</a>
</g>
</g>
<!-- Node0&#45;&gt;Node1 -->
<g id="edge1" class="edge"><title>Node0&#45;&gt;Node1</title>
<path fill="none" stroke="midnightblue" d="M124.002,-21C132.368,-21 141.033,-21 149.677,-21"/>
<polygon fill="midnightblue" stroke="midnightblue" points="123.966,-17.5001 113.966,-21 123.966,-24.5001 123.966,-17.5001"/>
</g>
</g>
</svg>
