<?xml version="1.0" encoding="UTF-8" standalone="no"?>
<!DOCTYPE svg PUBLIC "-//W3C//DTD SVG 1.1//EN"
 "http://www.w3.org/Graphics/SVG/1.1/DTD/svg11.dtd">
<!-- Generated by graphviz version 2.30.1 (20180420.1509)
 -->
<!-- Title: Graphical Class Hierarchy Pages: 1 -->
<svg width="430pt" height="312pt"
 viewBox="0.00 0.00 430.00 312.00" xmlns="http://www.w3.org/2000/svg" xmlns:xlink="http://www.w3.org/1999/xlink">
<g id="graph0" class="graph" transform="scale(1 1) rotate(0) translate(4 308)">
<title>Graphical Class Hierarchy</title>
<polygon fill="white" stroke="white" points="-4,5 -4,-308 427,-308 427,5 -4,5"/>
<!-- Node0 -->
<g id="node1" class="node"><title>Node0</title>
<g id="a_node1"><a target="_parent" xlink:href="http://en.cppreference.com/w/cpp/error/exception.html" target="_top" xlink:title="STL class.">
<polygon fill="white" stroke="black" points="0,-142.5 0,-161.5 86,-161.5 86,-142.5 0,-142.5"/>
<text text-anchor="middle" x="43" y="-149.5" font-family="Helvetica,sans-Serif" font-size="10.00">std::exception</text>
</a>
</g>
</g>
<!-- Node1 -->
<g id="node2" class="node"><title>Node1</title>
<g id="a_node2"><a xlink:href="classEuclid_1_1Fits_1_1FitsError.html" target="_top" xlink:title="Base of all exceptions thrown directly by the library.">
<polygon fill="white" stroke="black" points="122,-142.5 122,-161.5 236,-161.5 236,-142.5 122,-142.5"/>
<text text-anchor="middle" x="179" y="-149.5" font-family="Helvetica,sans-Serif" font-size="10.00">Euclid::Fits::FitsError</text>
</a>
</g>
</g>
<!-- Node0&#45;&gt;Node1 -->
<g id="edge1" class="edge"><title>Node0&#45;&gt;Node1</title>
<path fill="none" stroke="midnightblue" d="M96.1232,-152C104.564,-152 113.336,-152 121.867,-152"/>
<polygon fill="midnightblue" stroke="midnightblue" points="96.0308,-148.5 86.0308,-152 96.0307,-155.5 96.0308,-148.5"/>
</g>
<!-- Node2 -->
<g id="node3" class="node"><title>Node2</title>
<g id="a_node3"><a xlink:href="classEuclid_1_1Cfitsio_1_1CfitsioError.html" target="_top" xlink:title="The error class which is thrown when an error occurs in a CFitsIO routine.">
<polygon fill="white" stroke="black" points="287.5,-274 287.5,-304 406.5,-304 406.5,-274 287.5,-274"/>
<text text-anchor="start" x="295.5" y="-292" font-family="Helvetica,sans-Serif" font-size="10.00">Euclid::Cfitsio::Cfitsio</text>
<text text-anchor="middle" x="347" y="-281" font-family="Helvetica,sans-Serif" font-size="10.00">Error</text>
</a>
</g>
</g>
<!-- Node1&#45;&gt;Node2 -->
<g id="edge2" class="edge"><title>Node1&#45;&gt;Node2</title>
<path fill="none" stroke="midnightblue" d="M190.518,-170.366C205.55,-195.053 235.443,-238.75 272,-264 277.579,-267.853 283.801,-271.155 290.203,-273.974"/>
<polygon fill="midnightblue" stroke="midnightblue" points="193.447,-168.444 185.337,-161.627 187.426,-172.014 193.447,-168.444"/>
</g>
<!-- Node3 -->
<g id="node4" class="node"><title>Node3</title>
<g id="a_node4"><a xlink:href="structEuclid_1_1Fits_1_1ChecksumError.html" target="_top" xlink:title="Exception thrown if a checksum is missing or incorrect.">
<polygon fill="white" stroke="black" points="272.5,-235.5 272.5,-254.5 421.5,-254.5 421.5,-235.5 272.5,-235.5"/>
<text text-anchor="middle" x="347" y="-242.5" font-family="Helvetica,sans-Serif" font-size="10.00">Euclid::Fits::ChecksumError</text>
</a>
</g>
</g>
<!-- Node1&#45;&gt;Node3 -->
<g id="edge3" class="edge"><title>Node1&#45;&gt;Node3</title>
<path fill="none" stroke="midnightblue" d="M196.873,-168.946C214.275,-185.51 242.904,-210.317 272,-225 280.436,-229.257 289.884,-232.691 299.135,-235.431"/>
<polygon fill="midnightblue" stroke="midnightblue" points="198.888,-166.022 189.28,-161.557 194.006,-171.039 198.888,-166.022"/>
</g>
<!-- Node4 -->
<g id="node5" class="node"><title>Node4</title>
<g id="a_node5"><a xlink:href="structEuclid_1_1Fits_1_1HduCategory_1_1IncompatibleTrits.html" target="_top" xlink:title="The exception thrown when trying to combine incompatible trits.">
<polygon fill="white" stroke="black" points="278,-186 278,-216 416,-216 416,-186 278,-186"/>
<text text-anchor="start" x="286" y="-204" font-family="Helvetica,sans-Serif" font-size="10.00">Euclid::Fits::HduCategory</text>
<text text-anchor="middle" x="347" y="-193" font-family="Helvetica,sans-Serif" font-size="10.00">::IncompatibleTrits</text>
</a>
</g>
</g>
<!-- Node1&#45;&gt;Node4 -->
<g id="edge4" class="edge"><title>Node1&#45;&gt;Node4</title>
<path fill="none" stroke="midnightblue" d="M222.191,-164.454C244.365,-170.999 271.711,-179.071 295.058,-185.963"/>
<polygon fill="midnightblue" stroke="midnightblue" points="222.982,-161.038 212.401,-161.564 221.001,-167.752 222.982,-161.038"/>
</g>
<!-- Node5 -->
<g id="node6" class="node"><title>Node5</title>
<g id="a_node6"><a xlink:href="structEuclid_1_1Fits_1_1KeywordExistsError.html" target="_top" xlink:title="Exception thrown when a keyword already exists.">
<polygon fill="white" stroke="black" points="274,-137 274,-167 420,-167 420,-137 274,-137"/>
<text text-anchor="start" x="282" y="-155" font-family="Helvetica,sans-Serif" font-size="10.00">Euclid::Fits::KeywordExists</text>
<text text-anchor="middle" x="347" y="-144" font-family="Helvetica,sans-Serif" font-size="10.00">Error</text>
</a>
</g>
</g>
<!-- Node1&#45;&gt;Node5 -->
<g id="edge5" class="edge"><title>Node1&#45;&gt;Node5</title>
<path fill="none" stroke="midnightblue" d="M246.321,-152C255.411,-152 264.78,-152 273.967,-152"/>
<polygon fill="midnightblue" stroke="midnightblue" points="246.2,-148.5 236.2,-152 246.2,-155.5 246.2,-148.5"/>
</g>
<!-- Node6 -->
<g id="node7" class="node"><title>Node6</title>
<g id="a_node7"><a xlink:href="structEuclid_1_1Fits_1_1KeywordNotFoundError.html" target="_top" xlink:title="Exception thrown when a keyword is not found.">
<polygon fill="white" stroke="black" points="280,-88 280,-118 414,-118 414,-88 280,-88"/>
<text text-anchor="start" x="288" y="-106" font-family="Helvetica,sans-Serif" font-size="10.00">Euclid::Fits::KeywordNot</text>
<text text-anchor="middle" x="347" y="-95" font-family="Helvetica,sans-Serif" font-size="10.00">FoundError</text>
</a>
</g>
</g>
<!-- Node1&#45;&gt;Node6 -->
<g id="edge6" class="edge"><title>Node1&#45;&gt;Node6</title>
<path fill="none" stroke="midnightblue" d="M222.191,-139.546C244.365,-133.001 271.711,-124.929 295.058,-118.037"/>
<polygon fill="midnightblue" stroke="midnightblue" points="221.001,-136.248 212.401,-142.436 222.982,-142.962 221.001,-136.248"/>
</g>
<!-- Node7 -->
<g id="node8" class="node"><title>Node7</title>
<g id="a_node8"><a xlink:href="classEuclid_1_1Fits_1_1OutOfBoundsError.html" target="_top" xlink:title="Exception thrown if a value lies out of given bounds.">
<polygon fill="white" stroke="black" points="277.5,-39 277.5,-69 416.5,-69 416.5,-39 277.5,-39"/>
<text text-anchor="start" x="285.5" y="-57" font-family="Helvetica,sans-Serif" font-size="10.00">Euclid::Fits::OutOfBounds</text>
<text text-anchor="middle" x="347" y="-46" font-family="Helvetica,sans-Serif" font-size="10.00">Error</text>
</a>
</g>
</g>
<!-- Node1&#45;&gt;Node7 -->
<g id="edge7" class="edge"><title>Node1&#45;&gt;Node7</title>
<path fill="none" stroke="midnightblue" d="M197.355,-135.169C214.935,-118.897 243.525,-94.492 272,-79 278.79,-75.306 286.224,-72.0175 293.68,-69.1372"/>
<polygon fill="midnightblue" stroke="midnightblue" points="194.531,-133.021 189.659,-142.429 199.335,-138.114 194.531,-133.021"/>
</g>
<!-- Node8 -->
<g id="node9" class="node"><title>Node8</title>
<g id="a_node9"><a xlink:href="classEuclid_1_1Fits_1_1ReadOnlyError.html" target="_top" xlink:title="Exception thrown if trying to write a read&#45;only file.">
<polygon fill="white" stroke="black" points="275,-0.5 275,-19.5 419,-19.5 419,-0.5 275,-0.5"/>
<text text-anchor="middle" x="347" y="-7.5" font-family="Helvetica,sans-Serif" font-size="10.00">Euclid::Fits::ReadOnlyError</text>
</a>
</g>
</g>
<!-- Node1&#45;&gt;Node8 -->
<g id="edge8" class="edge"><title>Node1&#45;&gt;Node8</title>
<path fill="none" stroke="midnightblue" d="M189.049,-133.198C203.025,-106.192 232.437,-56.7381 272,-30 278.395,-25.6779 285.691,-22.2877 293.151,-19.6289"/>
<polygon fill="midnightblue" stroke="midnightblue" points="185.812,-131.847 184.46,-142.355 192.07,-134.983 185.812,-131.847"/>
</g>
</g>
</svg>
