<?xml version="1.0" encoding="UTF-8" standalone="no"?>
<!DOCTYPE svg PUBLIC "-//W3C//DTD SVG 1.1//EN"
 "http://www.w3.org/Graphics/SVG/1.1/DTD/svg11.dtd">
<!-- Generated by graphviz version 2.30.1 (20180420.1509)
 -->
<!-- Title: Euclid::Fits::FitsFile Pages: 1 -->
<svg width="408pt" height="185pt"
 viewBox="0.00 0.00 408.00 185.00" xmlns="http://www.w3.org/2000/svg" xmlns:xlink="http://www.w3.org/1999/xlink">
<g id="graph0" class="graph" transform="scale(1 1) rotate(0) translate(4 181)">
<title>Euclid::Fits::FitsFile</title>
<polygon fill="white" stroke="white" points="-4,5 -4,-181 405,-181 405,5 -4,5"/>
<!-- Node1 -->
<g id="node1" class="node"><title>Node1</title>
<g id="a_node1"><a xlink:title="Fits file reader&#45;writer.">
<polygon fill="#bfbfbf" stroke="black" points="0.5,-78.5 0.5,-97.5 107.5,-97.5 107.5,-78.5 0.5,-78.5"/>
<text text-anchor="middle" x="54" y="-85.5" font-family="Helvetica,sans-Serif" font-size="10.00">Euclid::Fits::FitsFile</text>
</a>
</g>
</g>
<!-- Node2 -->
<g id="node2" class="node"><title>Node2</title>
<g id="a_node2"><a xlink:href="classEuclid_1_1Fits_1_1MefFile.html" target="_top" xlink:title="Multi&#45;Extension Fits file reader&#45;writer.">
<polygon fill="white" stroke="black" points="144.5,-103.5 144.5,-122.5 253.5,-122.5 253.5,-103.5 144.5,-103.5"/>
<text text-anchor="middle" x="199" y="-110.5" font-family="Helvetica,sans-Serif" font-size="10.00">Euclid::Fits::MefFile</text>
</a>
</g>
</g>
<!-- Node1&#45;&gt;Node2 -->
<g id="edge1" class="edge"><title>Node1&#45;&gt;Node2</title>
<path fill="none" stroke="midnightblue" d="M117.769,-98.9736C126.657,-100.527 135.727,-102.113 144.42,-103.633"/>
<polygon fill="midnightblue" stroke="midnightblue" points="118.295,-95.5126 107.842,-97.238 117.089,-102.408 118.295,-95.5126"/>
</g>
<!-- Node5 -->
<g id="node5" class="node"><title>Node5</title>
<g id="a_node5"><a xlink:href="classEuclid_1_1Fits_1_1SifFile.html" target="_top" xlink:title="Single image Fits file handler.">
<polygon fill="white" stroke="black" points="147,-54.5 147,-73.5 251,-73.5 251,-54.5 147,-54.5"/>
<text text-anchor="middle" x="199" y="-61.5" font-family="Helvetica,sans-Serif" font-size="10.00">Euclid::Fits::SifFile</text>
</a>
</g>
</g>
<!-- Node1&#45;&gt;Node5 -->
<g id="edge4" class="edge"><title>Node1&#45;&gt;Node5</title>
<path fill="none" stroke="midnightblue" d="M117.826,-77.4558C127.511,-75.8303 137.412,-74.1686 146.803,-72.5925"/>
<polygon fill="midnightblue" stroke="midnightblue" points="117.124,-74.0245 107.842,-79.1315 118.283,-80.9279 117.124,-74.0245"/>
</g>
<!-- Node3 -->
<g id="node3" class="node"><title>Node3</title>
<g id="a_node3"><a xlink:href="classEuclid_1_1Fits_1_1Test_1_1NewMefFile.html" target="_top" xlink:title="MefFile with random name and create&#45;only policy.">
<polygon fill="white" stroke="black" points="298,-147 298,-177 392,-177 392,-147 298,-147"/>
<text text-anchor="start" x="306" y="-165" font-family="Helvetica,sans-Serif" font-size="10.00">Euclid::Fits::Test</text>
<text text-anchor="middle" x="345" y="-154" font-family="Helvetica,sans-Serif" font-size="10.00">::NewMefFile</text>
</a>
</g>
</g>
<!-- Node2&#45;&gt;Node3 -->
<g id="edge2" class="edge"><title>Node2&#45;&gt;Node3</title>
<path fill="none" stroke="midnightblue" d="M237.644,-125.809C256.688,-132.29 279.921,-140.195 299.81,-146.963"/>
<polygon fill="midnightblue" stroke="midnightblue" points="238.701,-122.472 228.106,-122.564 236.446,-129.099 238.701,-122.472"/>
</g>
<!-- Node4 -->
<g id="node4" class="node"><title>Node4</title>
<g id="a_node4"><a xlink:href="classEuclid_1_1Fits_1_1Test_1_1TemporaryMefFile.html" target="_top" xlink:title="Temporary MefFile with random name.">
<polygon fill="white" stroke="black" points="290.5,-98 290.5,-128 399.5,-128 399.5,-98 290.5,-98"/>
<text text-anchor="start" x="298.5" y="-116" font-family="Helvetica,sans-Serif" font-size="10.00">Euclid::Fits::Test</text>
<text text-anchor="middle" x="345" y="-105" font-family="Helvetica,sans-Serif" font-size="10.00">::TemporaryMefFile</text>
</a>
</g>
</g>
<!-- Node2&#45;&gt;Node4 -->
<g id="edge3" class="edge"><title>Node2&#45;&gt;Node4</title>
<path fill="none" stroke="midnightblue" d="M263.881,-113C272.714,-113 281.713,-113 290.335,-113"/>
<polygon fill="midnightblue" stroke="midnightblue" points="263.62,-109.5 253.62,-113 263.62,-116.5 263.62,-109.5"/>
</g>
<!-- Node6 -->
<g id="node6" class="node"><title>Node6</title>
<g id="a_node6"><a xlink:href="classEuclid_1_1Fits_1_1Test_1_1NewSifFile.html" target="_top" xlink:title="SifFile with random name and create&#45;only policy.">
<polygon fill="white" stroke="black" points="298,-49 298,-79 392,-79 392,-49 298,-49"/>
<text text-anchor="start" x="306" y="-67" font-family="Helvetica,sans-Serif" font-size="10.00">Euclid::Fits::Test</text>
<text text-anchor="middle" x="345" y="-56" font-family="Helvetica,sans-Serif" font-size="10.00">::NewSifFile</text>
</a>
</g>
</g>
<!-- Node5&#45;&gt;Node6 -->
<g id="edge5" class="edge"><title>Node5&#45;&gt;Node6</title>
<path fill="none" stroke="midnightblue" d="M261.311,-64C273.533,-64 286.176,-64 297.788,-64"/>
<polygon fill="midnightblue" stroke="midnightblue" points="261.175,-60.5001 251.174,-64 261.174,-67.5001 261.175,-60.5001"/>
</g>
<!-- Node7 -->
<g id="node7" class="node"><title>Node7</title>
<g id="a_node7"><a xlink:href="classEuclid_1_1Fits_1_1Test_1_1TemporarySifFile.html" target="_top" xlink:title="Temporary SifFile with random name.">
<polygon fill="white" stroke="black" points="293,-0 293,-30 397,-30 397,-0 293,-0"/>
<text text-anchor="start" x="301" y="-18" font-family="Helvetica,sans-Serif" font-size="10.00">Euclid::Fits::Test</text>
<text text-anchor="middle" x="345" y="-7" font-family="Helvetica,sans-Serif" font-size="10.00">::TemporarySifFile</text>
</a>
</g>
</g>
<!-- Node5&#45;&gt;Node7 -->
<g id="edge6" class="edge"><title>Node5&#45;&gt;Node7</title>
<path fill="none" stroke="midnightblue" d="M237.644,-51.1907C256.688,-44.7103 279.921,-36.8045 299.81,-30.037"/>
<polygon fill="midnightblue" stroke="midnightblue" points="236.446,-47.9011 228.106,-54.436 238.701,-54.528 236.446,-47.9011"/>
</g>
</g>
</svg>
