<?xml version="1.0" encoding="UTF-8" standalone="no"?>
<!DOCTYPE svg PUBLIC "-//W3C//DTD SVG 1.1//EN"
 "http://www.w3.org/Graphics/SVG/1.1/DTD/svg11.dtd">
<!-- Generated by graphviz version 2.30.1 (20180420.1509)
 -->
<!-- Title: Euclid::Fits::MefFile Pages: 1 -->
<svg width="229pt" height="152pt"
 viewBox="0.00 0.00 229.00 152.00" xmlns="http://www.w3.org/2000/svg" xmlns:xlink="http://www.w3.org/1999/xlink">
<g id="graph0" class="graph" transform="scale(1 1) rotate(0) translate(4 148)">
<title>Euclid::Fits::MefFile</title>
<polygon fill="white" stroke="white" points="-4,5 -4,-148 226,-148 226,5 -4,5"/>
<!-- Node1 -->
<g id="node1" class="node"><title>Node1</title>
<g id="a_node1"><a xlink:title="Multi&#45;Extension Fits file reader&#45;writer.">
<polygon fill="#bfbfbf" stroke="black" points="52.5,-68.5 52.5,-87.5 161.5,-87.5 161.5,-68.5 52.5,-68.5"/>
<text text-anchor="middle" x="107" y="-75.5" font-family="Helvetica,sans-Serif" font-size="10.00">Euclid::Fits::MefFile</text>
</a>
</g>
</g>
<!-- Node3 -->
<g id="node3" class="node"><title>Node3</title>
<g id="a_node3"><a xlink:href="classEuclid_1_1Fits_1_1Test_1_1NewMefFile.html" target="_top" xlink:title="MefFile with random name and create&#45;only policy.">
<polygon fill="white" stroke="black" points="0,-1 0,-31 94,-31 94,-1 0,-1"/>
<text text-anchor="start" x="8" y="-19" font-family="Helvetica,sans-Serif" font-size="10.00">Euclid::Fits::Test</text>
<text text-anchor="middle" x="47" y="-8" font-family="Helvetica,sans-Serif" font-size="10.00">::NewMefFile</text>
</a>
</g>
</g>
<!-- Node1&#45;&gt;Node3 -->
<g id="edge2" class="edge"><title>Node1&#45;&gt;Node3</title>
<path fill="none" stroke="midnightblue" d="M91.2376,-61.2376C81.9036,-51.9036 70.1755,-40.1755 61.1408,-31.1408"/>
<polygon fill="midnightblue" stroke="midnightblue" points="88.8575,-63.8073 98.4035,-68.4035 93.8073,-58.8575 88.8575,-63.8073"/>
</g>
<!-- Node4 -->
<g id="node4" class="node"><title>Node4</title>
<g id="a_node4"><a xlink:href="classEuclid_1_1Fits_1_1Test_1_1TemporaryMefFile.html" target="_top" xlink:title="Temporary MefFile with random name.">
<polygon fill="white" stroke="black" points="112.5,-1 112.5,-31 221.5,-31 221.5,-1 112.5,-1"/>
<text text-anchor="start" x="120.5" y="-19" font-family="Helvetica,sans-Serif" font-size="10.00">Euclid::Fits::Test</text>
<text text-anchor="middle" x="167" y="-8" font-family="Helvetica,sans-Serif" font-size="10.00">::TemporaryMefFile</text>
</a>
</g>
</g>
<!-- Node1&#45;&gt;Node4 -->
<g id="edge3" class="edge"><title>Node1&#45;&gt;Node4</title>
<path fill="none" stroke="midnightblue" d="M122.762,-61.2376C132.096,-51.9036 143.824,-40.1755 152.859,-31.1408"/>
<polygon fill="midnightblue" stroke="midnightblue" points="120.193,-58.8575 115.597,-68.4035 125.143,-63.8073 120.193,-58.8575"/>
</g>
<!-- Node2 -->
<g id="node2" class="node"><title>Node2</title>
<g id="a_node2"><a xlink:href="classEuclid_1_1Fits_1_1FitsFile.html" target="_top" xlink:title="Fits file reader&#45;writer.">
<polygon fill="white" stroke="black" points="53.5,-124.5 53.5,-143.5 160.5,-143.5 160.5,-124.5 53.5,-124.5"/>
<text text-anchor="middle" x="107" y="-131.5" font-family="Helvetica,sans-Serif" font-size="10.00">Euclid::Fits::FitsFile</text>
</a>
</g>
</g>
<!-- Node2&#45;&gt;Node1 -->
<g id="edge1" class="edge"><title>Node2&#45;&gt;Node1</title>
<path fill="none" stroke="midnightblue" d="M107,-113.805C107,-104.91 107,-94.7798 107,-87.7511"/>
<polygon fill="midnightblue" stroke="midnightblue" points="103.5,-114.083 107,-124.083 110.5,-114.083 103.5,-114.083"/>
</g>
</g>
</svg>
