<?xml version="1.0" encoding="UTF-8" standalone="no"?>
<!DOCTYPE svg PUBLIC "-//W3C//DTD SVG 1.1//EN"
 "http://www.w3.org/Graphics/SVG/1.1/DTD/svg11.dtd">
<!-- Generated by graphviz version 2.30.1 (20180420.1509)
 -->
<!-- Title: Euclid::Fits::OutOfBoundsError Pages: 1 -->
<svg width="146pt" height="152pt"
 viewBox="0.00 0.00 146.00 152.00" xmlns="http://www.w3.org/2000/svg" xmlns:xlink="http://www.w3.org/1999/xlink">
<g id="graph0" class="graph" transform="scale(1 1) rotate(0) translate(4 148)">
<title>Euclid::Fits::OutOfBoundsError</title>
<polygon fill="white" stroke="white" points="-4,5 -4,-148 143,-148 143,5 -4,5"/>
<!-- Node1 -->
<g id="node1" class="node"><title>Node1</title>
<g id="a_node1"><a xlink:title="Exception thrown if a value lies out of given bounds.">
<polygon fill="#bfbfbf" stroke="black" points="-0.5,-1 -0.5,-31 138.5,-31 138.5,-1 -0.5,-1"/>
<text text-anchor="start" x="7.5" y="-19" font-family="Helvetica,sans-Serif" font-size="10.00">Euclid::Fits::OutOfBounds</text>
<text text-anchor="middle" x="69" y="-8" font-family="Helvetica,sans-Serif" font-size="10.00">Error</text>
</a>
</g>
</g>
<!-- Node2 -->
<g id="node2" class="node"><title>Node2</title>
<g id="a_node2"><a xlink:href="classEuclid_1_1Fits_1_1FitsError.html" target="_top" xlink:title="Base of all exceptions thrown directly by the library.">
<polygon fill="white" stroke="black" points="12,-68.5 12,-87.5 126,-87.5 126,-68.5 12,-68.5"/>
<text text-anchor="middle" x="69" y="-75.5" font-family="Helvetica,sans-Serif" font-size="10.00">Euclid::Fits::FitsError</text>
</a>
</g>
</g>
<!-- Node2&#45;&gt;Node1 -->
<g id="edge1" class="edge"><title>Node2&#45;&gt;Node1</title>
<path fill="none" stroke="midnightblue" d="M69,-58.3707C69,-49.5849 69,-39.2721 69,-31.1408"/>
<polygon fill="midnightblue" stroke="midnightblue" points="65.5001,-58.4034 69,-68.4035 72.5001,-58.4035 65.5001,-58.4034"/>
</g>
<!-- Node3 -->
<g id="node3" class="node"><title>Node3</title>
<g id="a_node3"><a target="_parent" xlink:href="http://en.cppreference.com/w/cpp/error/exception.html" target="_top" xlink:title="STL class.">
<polygon fill="white" stroke="black" points="26,-124.5 26,-143.5 112,-143.5 112,-124.5 26,-124.5"/>
<text text-anchor="middle" x="69" y="-131.5" font-family="Helvetica,sans-Serif" font-size="10.00">std::exception</text>
</a>
</g>
</g>
<!-- Node3&#45;&gt;Node2 -->
<g id="edge2" class="edge"><title>Node3&#45;&gt;Node2</title>
<path fill="none" stroke="midnightblue" d="M69,-113.805C69,-104.91 69,-94.7798 69,-87.7511"/>
<polygon fill="midnightblue" stroke="midnightblue" points="65.5001,-114.083 69,-124.083 72.5001,-114.083 65.5001,-114.083"/>
</g>
</g>
</svg>
