<?xml version="1.0" encoding="UTF-8" standalone="no"?>
<!DOCTYPE svg PUBLIC "-//W3C//DTD SVG 1.1//EN"
 "http://www.w3.org/Graphics/SVG/1.1/DTD/svg11.dtd">
<!-- Generated by graphviz version 2.30.1 (20180420.1509)
 -->
<!-- Title: Euclid::Fits::SifFile Pages: 1 -->
<svg width="224pt" height="152pt"
 viewBox="0.00 0.00 224.00 152.00" xmlns="http://www.w3.org/2000/svg" xmlns:xlink="http://www.w3.org/1999/xlink">
<g id="graph0" class="graph" transform="scale(1 1) rotate(0) translate(4 148)">
<title>Euclid::Fits::SifFile</title>
<polygon fill="white" stroke="white" points="-4,5 -4,-148 221,-148 221,5 -4,5"/>
<!-- Node1 -->
<g id="node1" class="node"><title>Node1</title>
<g id="a_node1"><a xlink:title="Single image Fits file handler.">
<polygon fill="#bfbfbf" stroke="black" points="53,-68.5 53,-87.5 157,-87.5 157,-68.5 53,-68.5"/>
<text text-anchor="middle" x="105" y="-75.5" font-family="Helvetica,sans-Serif" font-size="10.00">Euclid::Fits::SifFile</text>
</a>
</g>
</g>
<!-- Node3 -->
<g id="node3" class="node"><title>Node3</title>
<g id="a_node3"><a xlink:href="classEuclid_1_1Fits_1_1Test_1_1NewSifFile.html" target="_top" xlink:title="SifFile with random name and create&#45;only policy.">
<polygon fill="white" stroke="black" points="0,-1 0,-31 94,-31 94,-1 0,-1"/>
<text text-anchor="start" x="8" y="-19" font-family="Helvetica,sans-Serif" font-size="10.00">Euclid::Fits::Test</text>
<text text-anchor="middle" x="47" y="-8" font-family="Helvetica,sans-Serif" font-size="10.00">::NewSifFile</text>
</a>
</g>
</g>
<!-- Node1&#45;&gt;Node3 -->
<g id="edge2" class="edge"><title>Node1&#45;&gt;Node3</title>
<path fill="none" stroke="midnightblue" d="M89.4917,-60.9569C80.5137,-51.6693 69.3157,-40.0852 60.6695,-31.1408"/>
<polygon fill="midnightblue" stroke="midnightblue" points="87.2233,-63.6461 96.69,-68.4035 92.2562,-58.781 87.2233,-63.6461"/>
</g>
<!-- Node4 -->
<g id="node4" class="node"><title>Node4</title>
<g id="a_node4"><a xlink:href="classEuclid_1_1Fits_1_1Test_1_1TemporarySifFile.html" target="_top" xlink:title="Temporary SifFile with random name.">
<polygon fill="white" stroke="black" points="112,-1 112,-31 216,-31 216,-1 112,-1"/>
<text text-anchor="start" x="120" y="-19" font-family="Helvetica,sans-Serif" font-size="10.00">Euclid::Fits::Test</text>
<text text-anchor="middle" x="164" y="-8" font-family="Helvetica,sans-Serif" font-size="10.00">::TemporarySifFile</text>
</a>
</g>
</g>
<!-- Node1&#45;&gt;Node4 -->
<g id="edge3" class="edge"><title>Node1&#45;&gt;Node4</title>
<path fill="none" stroke="midnightblue" d="M120.5,-61.2376C129.678,-51.9036 141.211,-40.1755 150.095,-31.1408"/>
<polygon fill="midnightblue" stroke="midnightblue" points="117.969,-58.8192 113.453,-68.4035 122.96,-63.7272 117.969,-58.8192"/>
</g>
<!-- Node2 -->
<g id="node2" class="node"><title>Node2</title>
<g id="a_node2"><a xlink:href="classEuclid_1_1Fits_1_1FitsFile.html" target="_top" xlink:title="Fits file reader&#45;writer.">
<polygon fill="white" stroke="black" points="51.5,-124.5 51.5,-143.5 158.5,-143.5 158.5,-124.5 51.5,-124.5"/>
<text text-anchor="middle" x="105" y="-131.5" font-family="Helvetica,sans-Serif" font-size="10.00">Euclid::Fits::FitsFile</text>
</a>
</g>
</g>
<!-- Node2&#45;&gt;Node1 -->
<g id="edge1" class="edge"><title>Node2&#45;&gt;Node1</title>
<path fill="none" stroke="midnightblue" d="M105,-113.805C105,-104.91 105,-94.7798 105,-87.7511"/>
<polygon fill="midnightblue" stroke="midnightblue" points="101.5,-114.083 105,-124.083 108.5,-114.083 101.5,-114.083"/>
</g>
</g>
</svg>
