<?xml version="1.0" encoding="UTF-8" standalone="no"?>
<!DOCTYPE svg PUBLIC "-//W3C//DTD SVG 1.1//EN"
 "http://www.w3.org/Graphics/SVG/1.1/DTD/svg11.dtd">
<!-- Generated by graphviz version 2.30.1 (20180420.1509)
 -->
<!-- Title: Euclid::Fits::HduIterator&lt; THdu &gt; Pages: 1 -->
<svg width="138pt" height="118pt"
 viewBox="0.00 0.00 138.00 118.00" xmlns="http://www.w3.org/2000/svg" xmlns:xlink="http://www.w3.org/1999/xlink">
<g id="graph0" class="graph" transform="scale(1 1) rotate(0) translate(4 114)">
<title>Euclid::Fits::HduIterator&lt; THdu &gt;</title>
<polygon fill="white" stroke="white" points="-4,5 -4,-114 135,-114 135,5 -4,5"/>
<!-- Node1 -->
<g id="node1" class="node"><title>Node1</title>
<g id="a_node1"><a xlink:title="Iterator for MefFile&#39;s HDUs.">
<polygon fill="#bfbfbf" stroke="black" points="0,-1 0,-31 130,-31 130,-1 0,-1"/>
<text text-anchor="start" x="8" y="-19" font-family="Helvetica,sans-Serif" font-size="10.00">Euclid::Fits::HduIterator</text>
<text text-anchor="middle" x="65" y="-8" font-family="Helvetica,sans-Serif" font-size="10.00">&lt; THdu &gt;</text>
</a>
</g>
</g>
<!-- Node2 -->
<g id="node2" class="node"><title>Node2</title>
<g id="a_node2"><a target="_parent" xlink:href="http://en.cppreference.com/w/cpp/iterator/iterator.html" target="_top" xlink:title=" ">
<polygon fill="white" stroke="black" points="8.5,-68.5 8.5,-109.5 121.5,-109.5 121.5,-68.5 8.5,-68.5"/>
<text text-anchor="start" x="16.5" y="-97.5" font-family="Helvetica,sans-Serif" font-size="10.00">std::iterator&lt; std</text>
<text text-anchor="start" x="16.5" y="-86.5" font-family="Helvetica,sans-Serif" font-size="10.00">::input_iterator_tag,</text>
<text text-anchor="middle" x="65" y="-75.5" font-family="Helvetica,sans-Serif" font-size="10.00"> const Hdu &gt;</text>
</a>
</g>
</g>
<!-- Node2&#45;&gt;Node1 -->
<g id="edge1" class="edge"><title>Node2&#45;&gt;Node1</title>
<path fill="none" stroke="midnightblue" d="M65,-58.0188C65,-48.6567 65,-38.7696 65,-31.0485"/>
<polygon fill="midnightblue" stroke="midnightblue" points="61.5001,-58.2225 65,-68.2225 68.5001,-58.2226 61.5001,-58.2225"/>
</g>
</g>
</svg>
