<?xml version="1.0" encoding="UTF-8" standalone="no"?>
<!DOCTYPE svg PUBLIC "-//W3C//DTD SVG 1.1//EN"
 "http://www.w3.org/Graphics/SVG/1.1/DTD/svg11.dtd">
<!-- Generated by graphviz version 2.30.1 (20180420.1509)
 -->
<!-- Title: Graphical Class Hierarchy Pages: 1 -->
<svg width="272pt" height="66pt"
 viewBox="0.00 0.00 272.00 66.00" xmlns="http://www.w3.org/2000/svg" xmlns:xlink="http://www.w3.org/1999/xlink">
<g id="graph0" class="graph" transform="scale(1 1) rotate(0) translate(4 62)">
<title>Graphical Class Hierarchy</title>
<polygon fill="white" stroke="white" points="-4,5 -4,-62 269,-62 269,5 -4,5"/>
<!-- Node0 -->
<g id="node1" class="node"><title>Node0</title>
<g id="a_node1"><a xlink:href="classEuclid_1_1Fits_1_1Hdu.html" target="_top" xlink:title="Base class for ImageHdu and BintableHdu.">
<polygon fill="white" stroke="black" points="0,-19.5 0,-38.5 94,-38.5 94,-19.5 0,-19.5"/>
<text text-anchor="middle" x="47" y="-26.5" font-family="Helvetica,sans-Serif" font-size="10.00">Euclid::Fits::Hdu</text>
</a>
</g>
</g>
<!-- Node1 -->
<g id="node2" class="node"><title>Node1</title>
<g id="a_node2"><a xlink:href="classEuclid_1_1Fits_1_1BintableHdu.html" target="_top" xlink:title="Binary table HDU reader&#45;writer.">
<polygon fill="white" stroke="black" points="130,-38.5 130,-57.5 264,-57.5 264,-38.5 130,-38.5"/>
<text text-anchor="middle" x="197" y="-45.5" font-family="Helvetica,sans-Serif" font-size="10.00">Euclid::Fits::BintableHdu</text>
</a>
</g>
</g>
<!-- Node0&#45;&gt;Node1 -->
<g id="edge1" class="edge"><title>Node0&#45;&gt;Node1</title>
<path fill="none" stroke="midnightblue" d="M104.105,-36.2026C112.535,-37.2849 121.295,-38.4094 129.91,-39.5154"/>
<polygon fill="midnightblue" stroke="midnightblue" points="104.381,-32.7095 94.0168,-34.9076 103.49,-39.6525 104.381,-32.7095"/>
</g>
<!-- Node2 -->
<g id="node3" class="node"><title>Node2</title>
<g id="a_node3"><a xlink:href="classEuclid_1_1Fits_1_1ImageHdu.html" target="_top" xlink:title="Image HDU reader&#45;writer.">
<polygon fill="white" stroke="black" points="134.5,-0.5 134.5,-19.5 259.5,-19.5 259.5,-0.5 134.5,-0.5"/>
<text text-anchor="middle" x="197" y="-7.5" font-family="Helvetica,sans-Serif" font-size="10.00">Euclid::Fits::ImageHdu</text>
</a>
</g>
</g>
<!-- Node0&#45;&gt;Node2 -->
<g id="edge2" class="edge"><title>Node0&#45;&gt;Node2</title>
<path fill="none" stroke="midnightblue" d="M104.088,-21.7995C113.939,-20.5349 124.241,-19.2123 134.236,-17.9291"/>
<polygon fill="midnightblue" stroke="midnightblue" points="103.49,-18.3475 94.0168,-23.0924 104.381,-25.2905 103.49,-18.3475"/>
</g>
</g>
</svg>
