<?xml version="1.0" encoding="UTF-8" standalone="no"?>
<!DOCTYPE svg PUBLIC "-//W3C//DTD SVG 1.1//EN"
 "http://www.w3.org/Graphics/SVG/1.1/DTD/svg11.dtd">
<!-- Generated by graphviz version 2.30.1 (20180420.1509)
 -->
<!-- Title: Graphical Class Hierarchy Pages: 1 -->
<svg width="286pt" height="142pt"
 viewBox="0.00 0.00 286.00 142.00" xmlns="http://www.w3.org/2000/svg" xmlns:xlink="http://www.w3.org/1999/xlink">
<g id="graph0" class="graph" transform="scale(1 1) rotate(0) translate(4 138)">
<title>Graphical Class Hierarchy</title>
<polygon fill="white" stroke="white" points="-4,5 -4,-138 283,-138 283,5 -4,5"/>
<!-- Node0 -->
<g id="node1" class="node"><title>Node0</title>
<g id="a_node1"><a xlink:href="classEuclid_1_1Fits_1_1FitsFile.html" target="_top" xlink:title="FITS file reader&#45;writer.">
<polygon fill="white" stroke="black" points="0,-57.5 0,-76.5 50,-76.5 50,-57.5 0,-57.5"/>
<text text-anchor="middle" x="25" y="-64.5" font-family="Helvetica,sans-Serif" font-size="10.00">FitsFile</text>
</a>
</g>
</g>
<!-- Node1 -->
<g id="node2" class="node"><title>Node1</title>
<g id="a_node2"><a xlink:href="classEuclid_1_1Fits_1_1MefFile.html" target="_top" xlink:title="Multi&#45;Extension FITS file reader&#45;writer.">
<polygon fill="white" stroke="black" points="86.5,-76.5 86.5,-95.5 137.5,-95.5 137.5,-76.5 86.5,-76.5"/>
<text text-anchor="middle" x="112" y="-83.5" font-family="Helvetica,sans-Serif" font-size="10.00">MefFile</text>
</a>
</g>
</g>
<!-- Node0&#45;&gt;Node1 -->
<g id="edge1" class="edge"><title>Node0&#45;&gt;Node1</title>
<path fill="none" stroke="midnightblue" d="M60.0697,-74.6156C68.8103,-76.5694 78.0465,-78.6339 86.2181,-80.4605"/>
<polygon fill="midnightblue" stroke="midnightblue" points="60.6529,-71.1596 50.1302,-72.3938 59.1259,-77.9911 60.6529,-71.1596"/>
</g>
<!-- Node4 -->
<g id="node5" class="node"><title>Node4</title>
<g id="a_node5"><a xlink:href="classEuclid_1_1Fits_1_1SifFile.html" target="_top" xlink:title="Single image FITS file handler.">
<polygon fill="white" stroke="black" points="89,-38.5 89,-57.5 135,-57.5 135,-38.5 89,-38.5"/>
<text text-anchor="middle" x="112" y="-45.5" font-family="Helvetica,sans-Serif" font-size="10.00">SifFile</text>
</a>
</g>
</g>
<!-- Node0&#45;&gt;Node4 -->
<g id="edge4" class="edge"><title>Node0&#45;&gt;Node4</title>
<path fill="none" stroke="midnightblue" d="M59.9508,-59.411C69.6777,-57.2368 80.0278,-54.9232 88.8476,-52.9517"/>
<polygon fill="midnightblue" stroke="midnightblue" points="59.1259,-56.0089 50.1302,-61.6062 60.6529,-62.8404 59.1259,-56.0089"/>
</g>
<!-- Node2 -->
<g id="node3" class="node"><title>Node2</title>
<g id="a_node3"><a xlink:href="classEuclid_1_1Fits_1_1Test_1_1NewMefFile.html" target="_top" xlink:title="MefFile with random name and create&#45;only policy.">
<polygon fill="white" stroke="black" points="189.5,-114.5 189.5,-133.5 262.5,-133.5 262.5,-114.5 189.5,-114.5"/>
<text text-anchor="middle" x="226" y="-121.5" font-family="Helvetica,sans-Serif" font-size="10.00">NewMefFile</text>
</a>
</g>
</g>
<!-- Node1&#45;&gt;Node2 -->
<g id="edge2" class="edge"><title>Node1&#45;&gt;Node2</title>
<path fill="none" stroke="midnightblue" d="M147.089,-97.5661C163.041,-102.978 181.809,-109.346 196.927,-114.475"/>
<polygon fill="midnightblue" stroke="midnightblue" points="148.173,-94.2379 137.579,-94.3393 145.924,-100.867 148.173,-94.2379"/>
</g>
<!-- Node3 -->
<g id="node4" class="node"><title>Node3</title>
<g id="a_node4"><a xlink:href="classEuclid_1_1Fits_1_1Test_1_1TemporaryMefFile.html" target="_top" xlink:title="Temporary MefFile with random name.">
<polygon fill="white" stroke="black" points="174.5,-76.5 174.5,-95.5 277.5,-95.5 277.5,-76.5 174.5,-76.5"/>
<text text-anchor="middle" x="226" y="-83.5" font-family="Helvetica,sans-Serif" font-size="10.00">TemporaryMefFile</text>
</a>
</g>
</g>
<!-- Node1&#45;&gt;Node3 -->
<g id="edge3" class="edge"><title>Node1&#45;&gt;Node3</title>
<path fill="none" stroke="midnightblue" d="M147.755,-86C156.161,-86 165.316,-86 174.289,-86"/>
<polygon fill="midnightblue" stroke="midnightblue" points="147.579,-82.5001 137.579,-86 147.579,-89.5001 147.579,-82.5001"/>
</g>
<!-- Node5 -->
<g id="node6" class="node"><title>Node5</title>
<g id="a_node6"><a xlink:href="classEuclid_1_1Fits_1_1Test_1_1NewSifFile.html" target="_top" xlink:title="SifFile with random name and create&#45;only policy.">
<polygon fill="white" stroke="black" points="192,-38.5 192,-57.5 260,-57.5 260,-38.5 192,-38.5"/>
<text text-anchor="middle" x="226" y="-45.5" font-family="Helvetica,sans-Serif" font-size="10.00">NewSifFile</text>
</a>
</g>
</g>
<!-- Node4&#45;&gt;Node5 -->
<g id="edge5" class="edge"><title>Node4&#45;&gt;Node5</title>
<path fill="none" stroke="midnightblue" d="M145.234,-48C159.859,-48 177.141,-48 191.872,-48"/>
<polygon fill="midnightblue" stroke="midnightblue" points="145.128,-44.5001 135.128,-48 145.128,-51.5001 145.128,-44.5001"/>
</g>
<!-- Node6 -->
<g id="node7" class="node"><title>Node6</title>
<g id="a_node7"><a xlink:href="classEuclid_1_1Fits_1_1Test_1_1TemporarySifFile.html" target="_top" xlink:title="Temporary SifFile with random name.">
<polygon fill="white" stroke="black" points="177,-0.5 177,-19.5 275,-19.5 275,-0.5 177,-0.5"/>
<text text-anchor="middle" x="226" y="-7.5" font-family="Helvetica,sans-Serif" font-size="10.00">TemporarySifFile</text>
</a>
</g>
</g>
<!-- Node4&#45;&gt;Node6 -->
<g id="edge6" class="edge"><title>Node4&#45;&gt;Node6</title>
<path fill="none" stroke="midnightblue" d="M144.842,-37.1965C161.262,-31.6255 181.11,-24.8913 196.948,-19.5178"/>
<polygon fill="midnightblue" stroke="midnightblue" points="143.473,-33.965 135.128,-40.4924 145.722,-40.5938 143.473,-33.965"/>
</g>
</g>
</svg>
