<?xml version="1.0" encoding="UTF-8" standalone="no"?>
<!DOCTYPE svg PUBLIC "-//W3C//DTD SVG 1.1//EN"
 "http://www.w3.org/Graphics/SVG/1.1/DTD/svg11.dtd">
<!-- Generated by graphviz version 2.30.1 (20180420.1509)
 -->
<!-- Title: Graphical Class Hierarchy Pages: 1 -->
<svg width="290pt" height="50pt"
 viewBox="0.00 0.00 290.00 50.00" xmlns="http://www.w3.org/2000/svg" xmlns:xlink="http://www.w3.org/1999/xlink">
<g id="graph0" class="graph" transform="scale(1 1) rotate(0) translate(4 46)">
<title>Graphical Class Hierarchy</title>
<polygon fill="white" stroke="white" points="-4,5 -4,-46 287,-46 287,5 -4,5"/>
<!-- Node0 -->
<g id="node1" class="node"><title>Node0</title>
<g id="a_node1"><a target="_parent" xlink:href="http://en.cppreference.com/w/cpp/iterator/iterator.html" xlink:title=" ">
<polygon fill="white" stroke="black" points="0,-0.5 0,-41.5 124,-41.5 124,-0.5 0,-0.5"/>
<text text-anchor="start" x="8" y="-29.5" font-family="Helvetica,sans-Serif" font-size="10.00">iterator&lt; std::input</text>
<text text-anchor="start" x="8" y="-18.5" font-family="Helvetica,sans-Serif" font-size="10.00">_iterator_tag, Position</text>
<text text-anchor="middle" x="62" y="-7.5" font-family="Helvetica,sans-Serif" font-size="10.00">&lt; 2 &gt; &gt;</text>
</a>
</g>
</g>
<!-- Node1 -->
<g id="node2" class="node"><title>Node1</title>
<g id="a_node2"><a xlink:href="classEuclid_1_1Fits_1_1PositionIterator.html" target="_top" xlink:title="A helper class to screen a Region.">
<polygon fill="white" stroke="black" points="160,-11.5 160,-30.5 282,-30.5 282,-11.5 160,-11.5"/>
<text text-anchor="middle" x="221" y="-18.5" font-family="Helvetica,sans-Serif" font-size="10.00">PositionIterator&lt; N &gt;</text>
</a>
</g>
</g>
<!-- Node0&#45;&gt;Node1 -->
<g id="edge1" class="edge"><title>Node0&#45;&gt;Node1</title>
<path fill="none" stroke="midnightblue" d="M134.413,-21C142.895,-21 151.487,-21 159.791,-21"/>
<polygon fill="midnightblue" stroke="midnightblue" points="134.15,-17.5001 124.15,-21 134.15,-24.5001 134.15,-17.5001"/>
</g>
</g>
</svg>
