<?xml version="1.0" encoding="UTF-8" standalone="no"?>
<!DOCTYPE svg PUBLIC "-//W3C//DTD SVG 1.1//EN"
 "http://www.w3.org/Graphics/SVG/1.1/DTD/svg11.dtd">
<!-- Generated by graphviz version 2.30.1 (20180420.1509)
 -->
<!-- Title: Graphical Class Hierarchy Pages: 1 -->
<svg width="1056pt" height="670pt"
 viewBox="0.00 0.00 1056.00 669.98" xmlns="http://www.w3.org/2000/svg" xmlns:xlink="http://www.w3.org/1999/xlink">
<g id="graph0" class="graph" transform="scale(1 1) rotate(0) translate(4 665.977)">
<title>Graphical Class Hierarchy</title>
<polygon fill="white" stroke="white" points="-4,5 -4,-665.977 1053,-665.977 1053,5 -4,5"/>
<!-- Node1 -->
<g id="node1" class="node"><title>Node1</title>
<g id="a_node1"><a xlink:href="structEuclid_1_1Fits_1_1VectorArithmeticMixin_3_01T_00_01TDerived_00_01true_01_4.html" target="_top" xlink:title="Mixin to provide vector space arithmetics to a container.">
<polygon fill="white" stroke="black" points="126.5,-630.977 126.5,-660.977 251.5,-660.977 251.5,-630.977 126.5,-630.977"/>
<text text-anchor="start" x="134.5" y="-648.977" font-family="Helvetica,sans-Serif" font-size="10.00">VectorArithmeticMixin</text>
<text text-anchor="middle" x="189" y="-637.977" font-family="Helvetica,sans-Serif" font-size="10.00">&lt; T, TDerived, true &gt;</text>
</a>
</g>
</g>
<!-- Node0 -->
<g id="node2" class="node"><title>Node0</title>
<g id="a_node2"><a xlink:href="structEuclid_1_1Fits_1_1VectorArithmeticMixin.html" target="_top" xlink:title=" ">
<polygon fill="white" stroke="black" points="311.5,-630.977 311.5,-660.977 436.5,-660.977 436.5,-630.977 311.5,-630.977"/>
<text text-anchor="start" x="319.5" y="-648.977" font-family="Helvetica,sans-Serif" font-size="10.00">VectorArithmeticMixin</text>
<text text-anchor="middle" x="374" y="-637.977" font-family="Helvetica,sans-Serif" font-size="10.00">&lt; T, TDerived, false &gt;</text>
</a>
</g>
</g>
<!-- Node1&#45;&gt;Node0 -->
<g id="edge1" class="edge"><title>Node1&#45;&gt;Node0</title>
<path fill="none" stroke="midnightblue" d="M261.753,-639.369C278.113,-639.13 295.357,-639.192 311.256,-639.555"/>
<polygon fill="midnightblue" stroke="midnightblue" points="261.633,-635.87 251.7,-639.556 261.764,-642.869 261.633,-635.87"/>
</g>
<!-- Node4 -->
<g id="node3" class="node"><title>Node4</title>
<g id="a_node3"><a xlink:href="structEuclid_1_1Fits_1_1VectorArithmeticMixin.html" target="_top" xlink:title="Mixin to provide vector space arithmetics to a container.">
<polygon fill="white" stroke="black" points="288,-504.977 288,-534.977 460,-534.977 460,-504.977 288,-504.977"/>
<text text-anchor="start" x="296" y="-522.977" font-family="Helvetica,sans-Serif" font-size="10.00">VectorArithmeticMixin</text>
<text text-anchor="middle" x="374" y="-511.977" font-family="Helvetica,sans-Serif" font-size="10.00">&lt; T, TDerived, Incrementable &gt;</text>
</a>
</g>
</g>
<!-- Node1&#45;&gt;Node4 -->
<g id="edge3" class="edge"><title>Node1&#45;&gt;Node4</title>
<path fill="none" stroke="midnightblue" d="M226.264,-625.844C234.818,-620.843 243.824,-615.366 252,-609.977 289.379,-585.338 330.81,-553.458 354.202,-535.005"/>
<polygon fill="midnightblue" stroke="midnightblue" points="224.481,-622.832 217.568,-630.861 227.979,-628.896 224.481,-622.832"/>
</g>
<!-- Node0&#45;&gt;Node1 -->
<g id="edge2" class="edge"><title>Node0&#45;&gt;Node1</title>
<path fill="none" stroke="midnightblue" d="M301.203,-652.586C284.841,-652.823 267.597,-652.761 251.7,-652.398"/>
<polygon fill="midnightblue" stroke="midnightblue" points="301.323,-656.084 311.256,-652.399 301.193,-649.085 301.323,-656.084"/>
</g>
<!-- Node5 -->
<g id="node4" class="node"><title>Node5</title>
<g id="a_node4"><a xlink:href="classEuclid_1_1Fits_1_1DataContainer.html" target="_top" xlink:title=" ">
<polygon fill="white" stroke="black" points="496.5,-322.977 496.5,-352.977 665.5,-352.977 665.5,-322.977 496.5,-322.977"/>
<text text-anchor="start" x="504.5" y="-340.977" font-family="Helvetica,sans-Serif" font-size="10.00">DataContainer&lt; T, TContainer,</text>
<text text-anchor="middle" x="581" y="-329.977" font-family="Helvetica,sans-Serif" font-size="10.00"> Column&lt; T, N, TContainer &gt; &gt;</text>
</a>
</g>
</g>
<!-- Node4&#45;&gt;Node5 -->
<g id="edge4" class="edge"><title>Node4&#45;&gt;Node5</title>
<path fill="none" stroke="midnightblue" d="M408.326,-499.054C425.511,-486.958 445.788,-470.484 460,-451.977 484.242,-420.409 467.165,-397.413 496,-369.977 503.349,-362.985 512.381,-357.48 521.768,-353.159"/>
<polygon fill="midnightblue" stroke="midnightblue" points="405.952,-496.437 399.67,-504.968 409.901,-502.217 405.952,-496.437"/>
</g>
<!-- Node9 -->
<g id="node8" class="node"><title>Node9</title>
<g id="a_node8"><a xlink:href="classEuclid_1_1Fits_1_1DataContainer.html" target="_top" xlink:title=" ">
<polygon fill="white" stroke="black" points="517,-379.477 517,-420.477 645,-420.477 645,-379.477 517,-379.477"/>
<text text-anchor="start" x="525" y="-408.477" font-family="Helvetica,sans-Serif" font-size="10.00">DataContainer&lt; long,</text>
<text text-anchor="start" x="525" y="-397.477" font-family="Helvetica,sans-Serif" font-size="10.00"> Indices&lt; 2 &gt;, Position</text>
<text text-anchor="middle" x="581" y="-386.477" font-family="Helvetica,sans-Serif" font-size="10.00">&lt; 2 &gt; &gt;</text>
</a>
</g>
</g>
<!-- Node4&#45;&gt;Node9 -->
<g id="edge8" class="edge"><title>Node4&#45;&gt;Node9</title>
<path fill="none" stroke="midnightblue" d="M435.454,-501.217C443.876,-497.866 452.281,-494.108 460,-489.977 496.507,-470.439 533.956,-440.453 557.095,-420.534"/>
<polygon fill="midnightblue" stroke="midnightblue" points="434.075,-497.997 425.974,-504.826 436.565,-504.539 434.075,-497.997"/>
</g>
<!-- Node11 -->
<g id="node10" class="node"><title>Node11</title>
<g id="a_node10"><a xlink:href="classEuclid_1_1Fits_1_1DataContainer.html" target="_top" xlink:title=" ">
<polygon fill="white" stroke="black" points="498,-214.977 498,-244.977 664,-244.977 664,-214.977 498,-214.977"/>
<text text-anchor="start" x="506" y="-232.977" font-family="Helvetica,sans-Serif" font-size="10.00">DataContainer&lt; T, TContainer,</text>
<text text-anchor="middle" x="581" y="-221.977" font-family="Helvetica,sans-Serif" font-size="10.00"> Raster&lt; T, N, TContainer &gt; &gt;</text>
</a>
</g>
</g>
<!-- Node4&#45;&gt;Node11 -->
<g id="edge10" class="edge"><title>Node4&#45;&gt;Node11</title>
<path fill="none" stroke="midnightblue" d="M386.794,-495.54C403.3,-461.28 434.169,-396.994 460,-341.977 476.227,-307.416 468.365,-290.322 496,-263.977 504.313,-256.052 514.715,-249.882 525.339,-245.111"/>
<polygon fill="midnightblue" stroke="midnightblue" points="383.534,-494.242 382.344,-504.77 389.84,-497.282 383.534,-494.242"/>
</g>
<!-- Node15 -->
<g id="node14" class="node"><title>Node15</title>
<g id="a_node14"><a xlink:href="classEuclid_1_1Fits_1_1DataContainer.html" target="_top" xlink:title="Mix ContiguousContainerMixin and VectorArithmeticMixin into a DataHolder as a user&#45;defined derived cl...">
<polygon fill="white" stroke="black" points="498,-273.977 498,-303.977 664,-303.977 664,-273.977 498,-273.977"/>
<text text-anchor="start" x="506" y="-291.977" font-family="Helvetica,sans-Serif" font-size="10.00">DataContainer&lt; T, TContainer,</text>
<text text-anchor="middle" x="581" y="-280.977" font-family="Helvetica,sans-Serif" font-size="10.00"> TDerived &gt;</text>
</a>
</g>
</g>
<!-- Node4&#45;&gt;Node15 -->
<g id="edge14" class="edge"><title>Node4&#45;&gt;Node15</title>
<path fill="none" stroke="midnightblue" d="M389.269,-496.039C406.241,-467.514 435.373,-418.378 460,-375.977 476.197,-348.09 470.622,-332.876 496,-312.977 500.416,-309.514 505.31,-306.551 510.452,-304.015"/>
<polygon fill="midnightblue" stroke="midnightblue" points="386.112,-494.501 384.004,-504.884 392.127,-498.081 386.112,-494.501"/>
</g>
<!-- Node6 -->
<g id="node5" class="node"><title>Node6</title>
<g id="a_node5"><a xlink:href="classEuclid_1_1Fits_1_1Column.html" target="_top" xlink:title="Binary table column data and metadata.">
<polygon fill="white" stroke="black" points="702.5,-328.477 702.5,-347.477 857.5,-347.477 857.5,-328.477 702.5,-328.477"/>
<text text-anchor="middle" x="780" y="-335.477" font-family="Helvetica,sans-Serif" font-size="10.00">Column&lt; T, N, TContainer &gt;</text>
</a>
</g>
</g>
<!-- Node5&#45;&gt;Node6 -->
<g id="edge5" class="edge"><title>Node5&#45;&gt;Node6</title>
<path fill="none" stroke="midnightblue" d="M675.579,-337.977C684.499,-337.977 693.474,-337.977 702.209,-337.977"/>
<polygon fill="midnightblue" stroke="midnightblue" points="675.546,-334.477 665.546,-337.977 675.546,-341.477 675.546,-334.477"/>
</g>
<!-- Node7 -->
<g id="node6" class="node"><title>Node7</title>
<g id="a_node6"><a xlink:href="classEuclid_1_1Fits_1_1Test_1_1RandomScalarColumn.html" target="_top" xlink:title="A random scalar Column of given type.">
<polygon fill="white" stroke="black" points="894.5,-336.477 894.5,-355.477 1047.5,-355.477 1047.5,-336.477 894.5,-336.477"/>
<text text-anchor="middle" x="971" y="-343.477" font-family="Helvetica,sans-Serif" font-size="10.00">RandomScalarColumn&lt; T &gt;</text>
</a>
</g>
</g>
<!-- Node6&#45;&gt;Node7 -->
<g id="edge6" class="edge"><title>Node6&#45;&gt;Node7</title>
<path fill="none" stroke="midnightblue" d="M867.866,-341.654C876.661,-342.026 885.545,-342.402 894.21,-342.769"/>
<polygon fill="midnightblue" stroke="midnightblue" points="867.74,-338.145 857.601,-341.219 867.444,-345.139 867.74,-338.145"/>
</g>
<!-- Node8 -->
<g id="node7" class="node"><title>Node8</title>
<g id="a_node7"><a xlink:href="classEuclid_1_1Fits_1_1Test_1_1RandomVectorColumn.html" target="_top" xlink:title="A small vector column of given type.">
<polygon fill="white" stroke="black" points="894,-298.477 894,-317.477 1048,-317.477 1048,-298.477 894,-298.477"/>
<text text-anchor="middle" x="971" y="-305.477" font-family="Helvetica,sans-Serif" font-size="10.00">RandomVectorColumn&lt; T &gt;</text>
</a>
</g>
</g>
<!-- Node6&#45;&gt;Node8 -->
<g id="edge7" class="edge"><title>Node6&#45;&gt;Node8</title>
<path fill="none" stroke="midnightblue" d="M851.052,-326.857C870.453,-323.778 891.33,-320.464 910.096,-317.485"/>
<polygon fill="midnightblue" stroke="midnightblue" points="850.388,-323.419 841.06,-328.443 851.486,-330.332 850.388,-323.419"/>
</g>
<!-- Node10 -->
<g id="node9" class="node"><title>Node10</title>
<g id="a_node9"><a xlink:href="classEuclid_1_1Fits_1_1Position.html" target="_top" xlink:title="n&#45;dimensional pixel position or image shape, i.e. set of integer coordinates.">
<polygon fill="white" stroke="black" points="737,-390.477 737,-409.477 823,-409.477 823,-390.477 737,-390.477"/>
<text text-anchor="middle" x="780" y="-397.477" font-family="Helvetica,sans-Serif" font-size="10.00">Position&lt; N &gt;</text>
</a>
</g>
</g>
<!-- Node9&#45;&gt;Node10 -->
<g id="edge9" class="edge"><title>Node9&#45;&gt;Node10</title>
<path fill="none" stroke="midnightblue" d="M655.493,-399.977C682.896,-399.977 713.064,-399.977 736.724,-399.977"/>
<polygon fill="midnightblue" stroke="midnightblue" points="655.145,-396.477 645.145,-399.977 655.145,-403.477 655.145,-396.477"/>
</g>
<!-- Node12 -->
<g id="node11" class="node"><title>Node12</title>
<g id="a_node11"><a xlink:href="classEuclid_1_1Fits_1_1Raster.html" target="_top" xlink:title="Data of a n&#45;dimensional image (2D by default).">
<polygon fill="white" stroke="black" points="705.5,-220.477 705.5,-239.477 854.5,-239.477 854.5,-220.477 705.5,-220.477"/>
<text text-anchor="middle" x="780" y="-227.477" font-family="Helvetica,sans-Serif" font-size="10.00">Raster&lt; T, N, TContainer &gt;</text>
</a>
</g>
</g>
<!-- Node11&#45;&gt;Node12 -->
<g id="edge11" class="edge"><title>Node11&#45;&gt;Node12</title>
<path fill="none" stroke="midnightblue" d="M674.152,-229.977C684.664,-229.977 695.273,-229.977 705.497,-229.977"/>
<polygon fill="midnightblue" stroke="midnightblue" points="674.119,-226.477 664.119,-229.977 674.119,-233.477 674.119,-226.477"/>
</g>
<!-- Node13 -->
<g id="node12" class="node"><title>Node13</title>
<g id="a_node12"><a xlink:href="classEuclid_1_1Fits_1_1Test_1_1RandomRaster.html" target="_top" xlink:title="A random Raster of given type and shape.">
<polygon fill="white" stroke="black" points="905.5,-254.477 905.5,-273.477 1036.5,-273.477 1036.5,-254.477 905.5,-254.477"/>
<text text-anchor="middle" x="971" y="-261.477" font-family="Helvetica,sans-Serif" font-size="10.00">RandomRaster&lt; T, N &gt;</text>
</a>
</g>
</g>
<!-- Node12&#45;&gt;Node13 -->
<g id="edge12" class="edge"><title>Node12&#45;&gt;Node13</title>
<path fill="none" stroke="midnightblue" d="M843.87,-241.287C867.616,-245.559 894.374,-250.372 917.114,-254.463"/>
<polygon fill="midnightblue" stroke="midnightblue" points="844.36,-237.819 833.898,-239.493 843.121,-244.708 844.36,-237.819"/>
</g>
<!-- Node14 -->
<g id="node13" class="node"><title>Node14</title>
<g id="a_node13"><a xlink:href="classEuclid_1_1Fits_1_1Test_1_1SmallRaster.html" target="_top" xlink:title="A 2D image Raster of floats.">
<polygon fill="white" stroke="black" points="933,-216.477 933,-235.477 1009,-235.477 1009,-216.477 933,-216.477"/>
<text text-anchor="middle" x="971" y="-223.477" font-family="Helvetica,sans-Serif" font-size="10.00">SmallRaster</text>
</a>
</g>
</g>
<!-- Node12&#45;&gt;Node14 -->
<g id="edge13" class="edge"><title>Node12&#45;&gt;Node14</title>
<path fill="none" stroke="midnightblue" d="M864.773,-228.204C888.654,-227.698 913.46,-227.173 932.985,-226.76"/>
<polygon fill="midnightblue" stroke="midnightblue" points="864.537,-224.708 854.614,-228.419 864.685,-231.706 864.537,-224.708"/>
</g>
<!-- Node20 -->
<g id="node15" class="node"><title>Node20</title>
<g id="a_node15"><a xlink:href="interfaceContiguousContainer.html" target="_top" xlink:title="Standard contiguous container requirements.">
<polygon fill="white" stroke="black" points="129.5,-176.477 129.5,-195.477 248.5,-195.477 248.5,-176.477 129.5,-176.477"/>
<text text-anchor="middle" x="189" y="-183.477" font-family="Helvetica,sans-Serif" font-size="10.00">ContiguousContainer</text>
</a>
</g>
</g>
<!-- Node20&#45;&gt;Node5 -->
<g id="edge15" class="edge"><title>Node20&#45;&gt;Node5</title>
<path fill="none" stroke="midnightblue" d="M208.676,-202.241C227.476,-217.778 257.923,-240.733 288,-253.977 359.738,-285.566 386.78,-264.995 460,-292.977 477.097,-299.511 479.129,-305.88 496,-312.977 504.696,-316.635 514.106,-319.987 523.376,-322.968"/>
<polygon fill="midnightblue" stroke="midnightblue" points="210.802,-199.456 200.901,-195.686 206.29,-204.807 210.802,-199.456"/>
</g>
<!-- Node20&#45;&gt;Node9 -->
<g id="edge16" class="edge"><title>Node20&#45;&gt;Node9</title>
<path fill="none" stroke="midnightblue" d="M199.486,-204.963C218.627,-242.527 262.235,-324.237 288,-341.977 356.325,-389.021 453.753,-399.874 516.936,-401.425"/>
<polygon fill="midnightblue" stroke="midnightblue" points="202.404,-202.977 194.772,-195.629 196.156,-206.133 202.404,-202.977"/>
</g>
<!-- Node20&#45;&gt;Node11 -->
<g id="edge17" class="edge"><title>Node20&#45;&gt;Node11</title>
<path fill="none" stroke="midnightblue" d="M211.597,-170.517C230.657,-157.886 259.731,-141.012 288,-133.977 362.182,-115.515 387.865,-108.673 460,-133.977 506.072,-150.138 547.595,-192.25 567.531,-214.953"/>
<polygon fill="midnightblue" stroke="midnightblue" points="209.383,-167.79 203.092,-176.315 213.326,-173.574 209.383,-167.79"/>
</g>
<!-- Node20&#45;&gt;Node6 -->
<g id="edge18" class="edge"><title>Node20&#45;&gt;Node6</title>
<path fill="none" stroke="midnightblue" d="M206.159,-168.91C224.172,-151.246 255.12,-124.757 288,-113.977 360.64,-90.1611 385.203,-98.1919 460,-113.977 557.934,-134.644 586.351,-144.362 666,-204.977 686.107,-220.278 685.733,-229.643 702,-248.977 726.599,-278.212 756.346,-312.225 770.595,-328.437"/>
<polygon fill="midnightblue" stroke="midnightblue" points="203.377,-166.746 198.833,-176.317 208.354,-171.669 203.377,-166.746"/>
</g>
<!-- Node21 -->
<g id="node16" class="node"><title>Node21</title>
<g id="a_node16"><a xlink:href="structEuclid_1_1Fits_1_1ContiguousContainerMixin.html" target="_top" xlink:title="Base class for a FITS data container.">
<polygon fill="white" stroke="black" points="301.5,-214.977 301.5,-244.977 446.5,-244.977 446.5,-214.977 301.5,-214.977"/>
<text text-anchor="start" x="309.5" y="-232.977" font-family="Helvetica,sans-Serif" font-size="10.00">ContiguousContainerMixin</text>
<text text-anchor="middle" x="374" y="-221.977" font-family="Helvetica,sans-Serif" font-size="10.00">&lt; T, TDerived &gt;</text>
</a>
</g>
</g>
<!-- Node20&#45;&gt;Node21 -->
<g id="edge19" class="edge"><title>Node20&#45;&gt;Node21</title>
<path fill="none" stroke="midnightblue" d="M239.722,-197.932C261.491,-203.166 287.278,-209.366 310.342,-214.911"/>
<polygon fill="midnightblue" stroke="midnightblue" points="240.249,-194.459 229.708,-195.524 238.613,-201.265 240.249,-194.459"/>
</g>
<!-- Node20&#45;&gt;Node15 -->
<g id="edge24" class="edge"><title>Node20&#45;&gt;Node15</title>
<path fill="none" stroke="midnightblue" d="M258.793,-175.552C316.188,-170.279 398.271,-170.956 460,-204.977 483.667,-218.02 474.751,-237.281 496,-253.977 506.435,-262.176 519.066,-268.763 531.328,-273.912"/>
<polygon fill="midnightblue" stroke="midnightblue" points="258.333,-172.08 248.732,-176.56 259.031,-179.046 258.333,-172.08"/>
</g>
<!-- Node20&#45;&gt;Node12 -->
<g id="edge25" class="edge"><title>Node20&#45;&gt;Node12</title>
<path fill="none" stroke="midnightblue" d="M197.878,-166.841C211.31,-137.094 241.757,-80.812 288,-57.9768 438.635,16.4085 518.147,21.7939 666,-57.9768 732.976,-94.1122 766.727,-189.188 776.176,-220.107"/>
<polygon fill="midnightblue" stroke="midnightblue" points="194.606,-165.59 193.839,-176.157 201.028,-168.375 194.606,-165.59"/>
</g>
<!-- Node21&#45;&gt;Node5 -->
<g id="edge20" class="edge"><title>Node21&#45;&gt;Node5</title>
<path fill="none" stroke="midnightblue" d="M443.257,-249.551C449.19,-252.57 454.876,-256.027 460,-259.977 482.553,-277.362 473.019,-296.161 496,-312.977 501.28,-316.84 507.156,-320.111 513.279,-322.88"/>
<polygon fill="midnightblue" stroke="midnightblue" points="444.321,-246.186 433.776,-245.157 441.378,-252.537 444.321,-246.186"/>
</g>
<!-- Node21&#45;&gt;Node9 -->
<g id="edge21" class="edge"><title>Node21&#45;&gt;Node9</title>
<path fill="none" stroke="midnightblue" d="M409.685,-250.453C426.367,-261.521 445.777,-276.326 460,-292.977 482.466,-319.277 470.866,-338.213 496,-361.977 503.211,-368.795 511.856,-374.539 520.818,-379.33"/>
<polygon fill="midnightblue" stroke="midnightblue" points="411.554,-247.493 401.253,-245.016 407.761,-253.376 411.554,-247.493"/>
</g>
<!-- Node21&#45;&gt;Node11 -->
<g id="edge22" class="edge"><title>Node21&#45;&gt;Node11</title>
<path fill="none" stroke="midnightblue" d="M456.89,-229.977C470.363,-229.977 484.333,-229.977 497.814,-229.977"/>
<polygon fill="midnightblue" stroke="midnightblue" points="456.699,-226.477 446.699,-229.977 456.699,-233.477 456.699,-226.477"/>
</g>
<!-- Node21&#45;&gt;Node15 -->
<g id="edge23" class="edge"><title>Node21&#45;&gt;Node15</title>
<path fill="none" stroke="midnightblue" d="M436.891,-247.789C465.923,-256.145 500.14,-265.993 527.835,-273.963"/>
<polygon fill="midnightblue" stroke="midnightblue" points="437.839,-244.42 427.261,-245.018 435.902,-251.147 437.839,-244.42"/>
</g>
<!-- Node56 -->
<g id="node17" class="node"><title>Node56</title>
<g id="a_node17"><a xlink:title=" ">
<polygon fill="white" stroke="#bfbfbf" points="147,-521.477 147,-540.477 231,-540.477 231,-521.477 147,-521.477"/>
<text text-anchor="middle" x="189" y="-528.477" font-family="Helvetica,sans-Serif" font-size="10.00">multiplicative</text>
</a>
</g>
</g>
<!-- Node56&#45;&gt;Node0 -->
<g id="edge26" class="edge"><title>Node56&#45;&gt;Node0</title>
<path fill="none" stroke="midnightblue" d="M216.104,-545.795C227.683,-552.967 241.119,-562.148 252,-571.977 270.749,-588.914 267.322,-601.457 288,-615.977 296.581,-622.002 306.492,-626.928 316.45,-630.918"/>
<polygon fill="midnightblue" stroke="midnightblue" points="217.673,-542.655 207.3,-540.5 214.066,-548.653 217.673,-542.655"/>
</g>
<!-- Node56&#45;&gt;Node4 -->
<g id="edge27" class="edge"><title>Node56&#45;&gt;Node4</title>
<path fill="none" stroke="midnightblue" d="M241.301,-527.893C255.798,-527.022 271.977,-526.049 287.895,-525.092"/>
<polygon fill="midnightblue" stroke="midnightblue" points="240.841,-524.414 231.069,-528.508 241.261,-531.402 240.841,-524.414"/>
</g>
<!-- Node64 -->
<g id="node18" class="node"><title>Node64</title>
<g id="a_node18"><a xlink:href="interfaceSizedData.html" target="_top" xlink:title="Requirements for a DataContainerHolder.">
<polygon fill="white" stroke="black" points="156,-308.477 156,-327.477 222,-327.477 222,-308.477 156,-308.477"/>
<text text-anchor="middle" x="189" y="-315.477" font-family="Helvetica,sans-Serif" font-size="10.00">SizedData</text>
</a>
</g>
</g>
<!-- Node65 -->
<g id="node19" class="node"><title>Node65</title>
<g id="a_node19"><a xlink:href="classEuclid_1_1Fits_1_1DataContainerHolder.html" target="_top" xlink:title="A holder of any contiguous container specified by a size and data pointer.">
<polygon fill="white" stroke="black" points="314.5,-302.977 314.5,-332.977 433.5,-332.977 433.5,-302.977 314.5,-302.977"/>
<text text-anchor="start" x="322.5" y="-320.977" font-family="Helvetica,sans-Serif" font-size="10.00">DataContainerHolder</text>
<text text-anchor="middle" x="374" y="-309.977" font-family="Helvetica,sans-Serif" font-size="10.00">&lt; T, TContainer &gt;</text>
</a>
</g>
</g>
<!-- Node64&#45;&gt;Node65 -->
<g id="edge28" class="edge"><title>Node64&#45;&gt;Node65</title>
<path fill="none" stroke="midnightblue" d="M232.308,-317.977C256.693,-317.977 287.711,-317.977 314.413,-317.977"/>
<polygon fill="midnightblue" stroke="midnightblue" points="232.296,-314.477 222.295,-317.977 232.295,-321.477 232.296,-314.477"/>
</g>
<!-- Node65&#45;&gt;Node5 -->
<g id="edge29" class="edge"><title>Node65&#45;&gt;Node5</title>
<path fill="none" stroke="#8b1a1a" d="M444.023,-324.711C460.841,-326.352 479.01,-328.124 496.423,-329.823"/>
<polygon fill="#8b1a1a" stroke="#8b1a1a" points="444.037,-321.196 433.745,-323.708 443.358,-328.163 444.037,-321.196"/>
</g>
<!-- Node65&#45;&gt;Node9 -->
<g id="edge30" class="edge"><title>Node65&#45;&gt;Node9</title>
<path fill="none" stroke="#8b1a1a" d="M422.138,-336.832C453.997,-349.576 496.05,-366.397 528.741,-379.473"/>
<polygon fill="#8b1a1a" stroke="#8b1a1a" points="423.185,-333.481 412.6,-333.017 420.585,-339.98 423.185,-333.481"/>
</g>
<!-- Node65&#45;&gt;Node11 -->
<g id="edge31" class="edge"><title>Node65&#45;&gt;Node11</title>
<path fill="none" stroke="#8b1a1a" d="M417.194,-298.71C440.37,-288.237 469.674,-275.175 496,-263.977 510.912,-257.634 527.422,-250.891 541.831,-245.097"/>
<polygon fill="#8b1a1a" stroke="#8b1a1a" points="415.653,-295.565 407.988,-302.879 418.541,-301.942 415.653,-295.565"/>
</g>
<!-- Node65&#45;&gt;Node15 -->
<g id="edge32" class="edge"><title>Node65&#45;&gt;Node15</title>
<path fill="none" stroke="#8b1a1a" d="M443.789,-308.246C461.165,-305.788 479.994,-303.124 497.951,-300.584"/>
<polygon fill="#8b1a1a" stroke="#8b1a1a" points="443.156,-304.8 433.745,-309.667 444.136,-311.731 443.156,-304.8"/>
</g>
<!-- Node67 -->
<g id="node20" class="node"><title>Node67</title>
<g id="a_node20"><a xlink:title=" ">
<polygon fill="white" stroke="#bfbfbf" points="136.5,-581.477 136.5,-600.477 241.5,-600.477 241.5,-581.477 136.5,-581.477"/>
<text text-anchor="middle" x="189" y="-588.477" font-family="Helvetica,sans-Serif" font-size="10.00">subtractable2_left</text>
</a>
</g>
</g>
<!-- Node67&#45;&gt;Node0 -->
<g id="edge33" class="edge"><title>Node67&#45;&gt;Node0</title>
<path fill="none" stroke="midnightblue" d="M231.456,-603.436C258.575,-611.587 294.166,-622.283 322.873,-630.911"/>
<polygon fill="midnightblue" stroke="midnightblue" points="232.46,-600.084 221.876,-600.557 230.446,-606.787 232.46,-600.084"/>
</g>
<!-- Node67&#45;&gt;Node4 -->
<g id="edge34" class="edge"><title>Node67&#45;&gt;Node4</title>
<path fill="none" stroke="midnightblue" d="M224.248,-577.689C255.432,-565.591 301.446,-547.738 334.026,-535.098"/>
<polygon fill="midnightblue" stroke="midnightblue" points="222.737,-574.521 214.68,-581.401 225.269,-581.047 222.737,-574.521"/>
</g>
<!-- Node70 -->
<g id="node21" class="node"><title>Node70</title>
<g id="a_node21"><a xlink:title=" ">
<polygon fill="white" stroke="#bfbfbf" points="0.5,-636.477 0.5,-655.477 89.5,-655.477 89.5,-636.477 0.5,-636.477"/>
<text text-anchor="middle" x="45" y="-643.477" font-family="Helvetica,sans-Serif" font-size="10.00">unit_steppable</text>
</a>
</g>
</g>
<!-- Node70&#45;&gt;Node1 -->
<g id="edge35" class="edge"><title>Node70&#45;&gt;Node1</title>
<path fill="none" stroke="midnightblue" d="M100.047,-645.977C108.65,-645.977 117.607,-645.977 126.37,-645.977"/>
<polygon fill="midnightblue" stroke="midnightblue" points="99.7634,-642.477 89.7634,-645.977 99.7633,-649.477 99.7634,-642.477"/>
</g>
<!-- Node71 -->
<g id="node22" class="node"><title>Node71</title>
<g id="a_node22"><a xlink:href="interfaceVectorArithmetic.html" target="_top" xlink:title="Vector&#45;space arithmetic requirements.">
<polygon fill="white" stroke="black" points="140,-469.477 140,-488.477 238,-488.477 238,-469.477 140,-469.477"/>
<text text-anchor="middle" x="189" y="-476.477" font-family="Helvetica,sans-Serif" font-size="10.00">VectorArithmetic</text>
</a>
</g>
</g>
<!-- Node71&#45;&gt;Node5 -->
<g id="edge36" class="edge"><title>Node71&#45;&gt;Node5</title>
<path fill="none" stroke="midnightblue" d="M226.113,-465.921C298.621,-439.706 461.535,-380.806 538.38,-353.024"/>
<polygon fill="midnightblue" stroke="midnightblue" points="224.714,-462.705 216.5,-469.396 227.094,-469.288 224.714,-462.705"/>
</g>
<!-- Node71&#45;&gt;Node9 -->
<g id="edge37" class="edge"><title>Node71&#45;&gt;Node9</title>
<path fill="none" stroke="midnightblue" d="M248.406,-478.313C303.716,-476.478 388.683,-470.513 460,-451.977 488.128,-444.666 518.128,-431.666 541.096,-420.494"/>
<polygon fill="midnightblue" stroke="midnightblue" points="247.984,-474.824 238.092,-478.619 248.192,-481.821 247.984,-474.824"/>
</g>
<!-- Node71&#45;&gt;Node11 -->
<g id="edge38" class="edge"><title>Node71&#45;&gt;Node11</title>
<path fill="none" stroke="midnightblue" d="M199.275,-460.143C212.262,-433.278 236.058,-382.193 252,-336.977 272.22,-279.627 239.674,-241.888 288,-204.977 365.634,-145.68 491.067,-189.391 548.931,-214.952"/>
<polygon fill="midnightblue" stroke="midnightblue" points="196.101,-458.668 194.866,-469.191 202.393,-461.735 196.101,-458.668"/>
</g>
<!-- Node71&#45;&gt;Node0 -->
<g id="edge39" class="edge"><title>Node71&#45;&gt;Node0</title>
<path fill="none" stroke="midnightblue" d="M227.098,-492.978C236.219,-497.852 245.284,-504.123 252,-511.977 283.789,-549.151 253.518,-581.286 288,-615.977 294.619,-622.636 302.805,-627.822 311.459,-631.859"/>
<polygon fill="midnightblue" stroke="midnightblue" points="228.564,-489.799 218.042,-488.561 225.496,-496.09 228.564,-489.799"/>
</g>
<!-- Node71&#45;&gt;Node6 -->
<g id="edge40" class="edge"><title>Node71&#45;&gt;Node6</title>
<path fill="none" stroke="midnightblue" d="M224.747,-492.967C234.35,-497.968 244.251,-504.306 252,-511.977 275.747,-535.482 259.268,-560.921 288,-577.977 360.232,-620.856 601.485,-631.771 666,-577.977 734.36,-520.977 650.204,-453.358 702,-380.977 713.405,-365.039 732.655,-354.289 749.054,-347.523"/>
<polygon fill="midnightblue" stroke="midnightblue" points="226.235,-489.799 215.711,-488.582 223.18,-496.097 226.235,-489.799"/>
</g>
<!-- Node71&#45;&gt;Node15 -->
<g id="edge41" class="edge"><title>Node71&#45;&gt;Node15</title>
<path fill="none" stroke="midnightblue" d="M202.629,-460.933C219.435,-438.353 251.332,-400.197 288,-379.977 356.555,-342.172 389.43,-375.873 460,-341.977 478.52,-333.081 477.759,-322.432 496,-312.977 502.463,-309.627 509.456,-306.689 516.553,-304.127"/>
<polygon fill="midnightblue" stroke="midnightblue" points="199.605,-459.141 196.569,-469.291 205.272,-463.25 199.605,-459.141"/>
</g>
<!-- Node71&#45;&gt;Node12 -->
<g id="edge42" class="edge"><title>Node71&#45;&gt;Node12</title>
<path fill="none" stroke="midnightblue" d="M220.007,-493.122C230.45,-498.515 242.038,-505.045 252,-511.977 269.572,-524.203 267.99,-536.369 288,-543.977 359.454,-571.144 385.984,-563.091 460,-543.977 561.316,-517.812 599.434,-510.714 666,-429.977 698.992,-389.961 676.527,-364.153 702,-318.977 720.365,-286.408 751.821,-254.923 768.267,-239.615"/>
<polygon fill="midnightblue" stroke="midnightblue" points="221.325,-489.868 210.817,-488.511 218.185,-496.124 221.325,-489.868"/>
</g>
<!-- Node71&#45;&gt;Node4 -->
<g id="edge43" class="edge"><title>Node71&#45;&gt;Node4</title>
<path fill="none" stroke="midnightblue" d="M242.451,-490.728C262.156,-495.143 284.834,-500.224 305.702,-504.899"/>
<polygon fill="midnightblue" stroke="midnightblue" points="242.967,-487.257 232.444,-488.486 241.437,-494.088 242.967,-487.257"/>
</g>
</g>
</svg>
