<?xml version="1.0" encoding="UTF-8" standalone="no"?>
<!DOCTYPE svg PUBLIC "-//W3C//DTD SVG 1.1//EN"
 "http://www.w3.org/Graphics/SVG/1.1/DTD/svg11.dtd">
<!-- Generated by graphviz version 2.30.1 (20180420.1509)
 -->
<!-- Title: Graphical Class Hierarchy Pages: 1 -->
<svg width="158pt" height="66pt"
 viewBox="0.00 0.00 158.00 66.00" xmlns="http://www.w3.org/2000/svg" xmlns:xlink="http://www.w3.org/1999/xlink">
<g id="graph0" class="graph" transform="scale(1 1) rotate(0) translate(4 62)">
<title>Graphical Class Hierarchy</title>
<polygon fill="white" stroke="white" points="-4,5 -4,-62 155,-62 155,5 -4,5"/>
<!-- Node0 -->
<g id="node1" class="node"><title>Node0</title>
<g id="a_node1"><a xlink:href="classEuclid_1_1Fits_1_1Hdu.html" target="_top" xlink:title="Base class for ImageHdu and BintableHdu.">
<polygon fill="white" stroke="black" points="0,-19.5 0,-38.5 36,-38.5 36,-19.5 0,-19.5"/>
<text text-anchor="middle" x="18" y="-26.5" font-family="Helvetica,sans-Serif" font-size="10.00">Hdu</text>
</a>
</g>
</g>
<!-- Node1 -->
<g id="node2" class="node"><title>Node1</title>
<g id="a_node2"><a xlink:href="classEuclid_1_1Fits_1_1BintableHdu.html" target="_top" xlink:title="Binary table HDU reader&#45;writer.">
<polygon fill="white" stroke="black" points="72.5,-38.5 72.5,-57.5 149.5,-57.5 149.5,-38.5 72.5,-38.5"/>
<text text-anchor="middle" x="111" y="-45.5" font-family="Helvetica,sans-Serif" font-size="10.00">BintableHdu</text>
</a>
</g>
</g>
<!-- Node0&#45;&gt;Node1 -->
<g id="edge1" class="edge"><title>Node0&#45;&gt;Node1</title>
<path fill="none" stroke="midnightblue" d="M45.9284,-34.6224C54.1712,-36.3434 63.3957,-38.2694 72.221,-40.1121"/>
<polygon fill="midnightblue" stroke="midnightblue" points="46.6207,-31.1916 36.1164,-32.5738 45.1899,-38.0438 46.6207,-31.1916"/>
</g>
<!-- Node2 -->
<g id="node3" class="node"><title>Node2</title>
<g id="a_node3"><a xlink:href="classEuclid_1_1Fits_1_1ImageHdu.html" target="_top" xlink:title="Image HDU reader&#45;writer.">
<polygon fill="white" stroke="black" points="77.5,-0.5 77.5,-19.5 144.5,-19.5 144.5,-0.5 77.5,-0.5"/>
<text text-anchor="middle" x="111" y="-7.5" font-family="Helvetica,sans-Serif" font-size="10.00">ImageHdu</text>
</a>
</g>
</g>
<!-- Node0&#45;&gt;Node2 -->
<g id="edge2" class="edge"><title>Node0&#45;&gt;Node2</title>
<path fill="none" stroke="midnightblue" d="M46.1507,-23.3312C55.9982,-21.2751 67.2232,-18.9314 77.4862,-16.7886"/>
<polygon fill="midnightblue" stroke="midnightblue" points="45.1899,-19.9562 36.1164,-25.4262 46.6207,-26.8084 45.1899,-19.9562"/>
</g>
</g>
</svg>
