<?xml version="1.0" encoding="UTF-8" standalone="no"?>
<!DOCTYPE svg PUBLIC "-//W3C//DTD SVG 1.1//EN"
 "http://www.w3.org/Graphics/SVG/1.1/DTD/svg11.dtd">
<!-- Generated by graphviz version 2.30.1 (20180420.1509)
 -->
<!-- Title: Graphical Class Hierarchy Pages: 1 -->
<svg width="352pt" height="230pt"
 viewBox="0.00 0.00 352.00 230.00" xmlns="http://www.w3.org/2000/svg" xmlns:xlink="http://www.w3.org/1999/xlink">
<g id="graph0" class="graph" transform="scale(1 1) rotate(0) translate(4 226)">
<title>Graphical Class Hierarchy</title>
<polygon fill="white" stroke="white" points="-4,5 -4,-226 349,-226 349,5 -4,5"/>
<!-- Node0 -->
<g id="node1" class="node"><title>Node0</title>
<g id="a_node1"><a target="_parent" xlink:href="http://en.cppreference.com/w/cpp/error/exception.html" xlink:title=" ">
<polygon fill="white" stroke="black" points="0.5,-95.5 0.5,-114.5 65.5,-114.5 65.5,-95.5 0.5,-95.5"/>
<text text-anchor="middle" x="33" y="-102.5" font-family="Helvetica,sans-Serif" font-size="10.00">exception</text>
</a>
</g>
</g>
<!-- Node1 -->
<g id="node2" class="node"><title>Node1</title>
<g id="a_node2"><a xlink:href="classEuclid_1_1Fits_1_1FitsError.html" target="_top" xlink:title="Base of all exceptions thrown directly by the library.">
<polygon fill="white" stroke="black" points="102,-95.5 102,-114.5 158,-114.5 158,-95.5 102,-95.5"/>
<text text-anchor="middle" x="130" y="-102.5" font-family="Helvetica,sans-Serif" font-size="10.00">FitsError</text>
</a>
</g>
</g>
<!-- Node0&#45;&gt;Node1 -->
<g id="edge1" class="edge"><title>Node0&#45;&gt;Node1</title>
<path fill="none" stroke="midnightblue" d="M75.8348,-105C84.6931,-105 93.8181,-105 101.954,-105"/>
<polygon fill="midnightblue" stroke="midnightblue" points="75.6337,-101.5 65.6336,-105 75.6336,-108.5 75.6337,-101.5"/>
</g>
<!-- Node2 -->
<g id="node3" class="node"><title>Node2</title>
<g id="a_node3"><a xlink:href="structEuclid_1_1Fits_1_1ChecksumError.html" target="_top" xlink:title="Exception thrown if a checksum is missing or incorrect.">
<polygon fill="white" stroke="black" points="223.5,-202.5 223.5,-221.5 314.5,-221.5 314.5,-202.5 223.5,-202.5"/>
<text text-anchor="middle" x="269" y="-209.5" font-family="Helvetica,sans-Serif" font-size="10.00">ChecksumError</text>
</a>
</g>
</g>
<!-- Node1&#45;&gt;Node2 -->
<g id="edge2" class="edge"><title>Node1&#45;&gt;Node2</title>
<path fill="none" stroke="midnightblue" d="M139.762,-123.811C149.995,-143.717 168.789,-174.604 194,-192 202.653,-197.971 213.013,-202.161 223.202,-205.102"/>
<polygon fill="midnightblue" stroke="midnightblue" points="142.874,-122.208 135.318,-114.781 136.593,-125.299 142.874,-122.208"/>
</g>
<!-- Node3 -->
<g id="node4" class="node"><title>Node3</title>
<g id="a_node4"><a xlink:href="structEuclid_1_1Fits_1_1HduCategory_1_1IncompatibleTrits.html" target="_top" xlink:title="The exception thrown when trying to combine incompatible trits.">
<polygon fill="white" stroke="black" points="194.5,-153 194.5,-183 343.5,-183 343.5,-153 194.5,-153"/>
<text text-anchor="start" x="202.5" y="-171" font-family="Helvetica,sans-Serif" font-size="10.00">HduCategory::Incompatible</text>
<text text-anchor="middle" x="269" y="-160" font-family="Helvetica,sans-Serif" font-size="10.00">Trits</text>
</a>
</g>
</g>
<!-- Node1&#45;&gt;Node3 -->
<g id="edge3" class="edge"><title>Node1&#45;&gt;Node3</title>
<path fill="none" stroke="midnightblue" d="M153.695,-120.33C165.399,-127.807 180.102,-136.554 194,-143 201.75,-146.595 210.167,-149.934 218.454,-152.926"/>
<polygon fill="midnightblue" stroke="midnightblue" points="155.312,-117.206 145.024,-114.674 151.487,-123.069 155.312,-117.206"/>
</g>
<!-- Node4 -->
<g id="node5" class="node"><title>Node4</title>
<g id="a_node5"><a xlink:href="structEuclid_1_1Fits_1_1KeywordExistsError.html" target="_top" xlink:title="Exception thrown when a keyword already exists.">
<polygon fill="white" stroke="black" points="213.5,-114.5 213.5,-133.5 324.5,-133.5 324.5,-114.5 213.5,-114.5"/>
<text text-anchor="middle" x="269" y="-121.5" font-family="Helvetica,sans-Serif" font-size="10.00">KeywordExistsError</text>
</a>
</g>
</g>
<!-- Node1&#45;&gt;Node4 -->
<g id="edge4" class="edge"><title>Node1&#45;&gt;Node4</title>
<path fill="none" stroke="midnightblue" d="M168.194,-110.158C182.06,-112.081 198.106,-114.307 213.223,-116.403"/>
<polygon fill="midnightblue" stroke="midnightblue" points="168.453,-106.661 158.067,-108.754 167.491,-113.594 168.453,-106.661"/>
</g>
<!-- Node5 -->
<g id="node6" class="node"><title>Node5</title>
<g id="a_node6"><a xlink:href="structEuclid_1_1Fits_1_1KeywordNotFoundError.html" target="_top" xlink:title="Exception thrown when a keyword is not found.">
<polygon fill="white" stroke="black" points="205,-76.5 205,-95.5 333,-95.5 333,-76.5 205,-76.5"/>
<text text-anchor="middle" x="269" y="-83.5" font-family="Helvetica,sans-Serif" font-size="10.00">KeywordNotFoundError</text>
</a>
</g>
</g>
<!-- Node1&#45;&gt;Node5 -->
<g id="edge5" class="edge"><title>Node1&#45;&gt;Node5</title>
<path fill="none" stroke="midnightblue" d="M168.069,-99.8591C179.468,-98.2782 192.349,-96.4917 204.981,-94.7399"/>
<polygon fill="midnightblue" stroke="midnightblue" points="167.491,-96.4056 158.067,-101.246 168.453,-103.339 167.491,-96.4056"/>
</g>
<!-- Node6 -->
<g id="node7" class="node"><title>Node6</title>
<g id="a_node7"><a xlink:href="classEuclid_1_1Fits_1_1OutOfBoundsError.html" target="_top" xlink:title="Exception thrown if a value lies out of given bounds.">
<polygon fill="white" stroke="black" points="217,-38.5 217,-57.5 321,-57.5 321,-38.5 217,-38.5"/>
<text text-anchor="middle" x="269" y="-45.5" font-family="Helvetica,sans-Serif" font-size="10.00">OutOfBoundsError</text>
</a>
</g>
</g>
<!-- Node1&#45;&gt;Node6 -->
<g id="edge6" class="edge"><title>Node1&#45;&gt;Node6</title>
<path fill="none" stroke="midnightblue" d="M153.041,-89.5265C164.766,-81.8678 179.686,-73.0019 194,-67 202.929,-63.2558 212.784,-60.102 222.309,-57.5064"/>
<polygon fill="midnightblue" stroke="midnightblue" points="150.746,-86.8517 144.395,-95.3321 154.648,-92.6632 150.746,-86.8517"/>
</g>
<!-- Node7 -->
<g id="node8" class="node"><title>Node7</title>
<g id="a_node8"><a xlink:href="classEuclid_1_1Fits_1_1ReadOnlyError.html" target="_top" xlink:title="Exception thrown if trying to write a read&#45;only file.">
<polygon fill="white" stroke="black" points="226,-0.5 226,-19.5 312,-19.5 312,-0.5 226,-0.5"/>
<text text-anchor="middle" x="269" y="-7.5" font-family="Helvetica,sans-Serif" font-size="10.00">ReadOnlyError</text>
</a>
</g>
</g>
<!-- Node1&#45;&gt;Node7 -->
<g id="edge7" class="edge"><title>Node1&#45;&gt;Node7</title>
<path fill="none" stroke="midnightblue" d="M141.445,-86.6952C152.344,-69.2524 171.039,-43.5554 194,-29 203.522,-22.9636 214.879,-18.8411 225.803,-16.0271"/>
<polygon fill="midnightblue" stroke="midnightblue" points="138.358,-85.0376 136.214,-95.4133 144.36,-88.6393 138.358,-85.0376"/>
</g>
</g>
</svg>
